<svg xmlns="http://www.w3.org/2000/svg" width="192" height="192" viewBox="0 0 192 192">
  <defs>
    <linearGradient id="sky" x1="0" y1="0" x2="1" y2="1">
      <stop offset="0%" stop-color="#0f172a"/>
      <stop offset="100%" stop-color="#2e1065"/>
    </linearGradient>
  </defs>
  <rect width="192" height="192" rx="38" fill="url(#sky)"/>
  <circle cx="145" cy="28" r="9" fill="#fffddb"/>
  <circle cx="148" cy="26" r="9" fill="#0f172a"/>
  <g transform="translate(96,109)">
    <rect x="-27" y="-2" width="54" height="23" rx="2" fill="#f8f8ff"/>
    <rect x="-27" y="-2" width="26" height="23" rx="2" fill="#fff"/>
    <rect x="1" y="-2" width="26" height="23" rx="2" fill="#f8f8ff"/>
    <line x1="0" y1="-2" x2="0" y2="21" stroke="#ddd" stroke-width="1"/>
    <line x1="-21" y1="4" x2="-6" y2="4" stroke="#d0d0e0" stroke-width="1" stroke-linecap="round"/>
    <line x1="-21" y1="9" x2="-10" y2="9" stroke="#d0d0e0" stroke-width="1" stroke-linecap="round"/>
    <line x1="-21" y1="14" x2="-13" y2="14" stroke="#d0d0e0" stroke-width="1" stroke-linecap="round"/>
    <line x1="7" y1="4" x2="21" y2="4" stroke="#d0d0e0" stroke-width="1" stroke-linecap="round"/>
    <line x1="7" y1="9" x2="17" y2="9" stroke="#d0d0e0" stroke-width="1" stroke-linecap="round"/>
    <line x1="7" y1="14" x2="13" y2="14" stroke="#d0d0e0" stroke-width="1" stroke-linecap="round"/>
  </g>
  <circle cx="96" cy="73" r="15" fill="#ffd700" opacity="0.1"/>
  <g transform="translate(96,73)">
    <polygon points="0,-12 4,-5 12,-5 6,1 8,10 0,6 -8,10 -6,1 -12,-5 -4,-5" fill="#facc15" stroke="#f59e0b" stroke-width="1.5" stroke-linejoin="round"/>
  </g>
</svg>
