<svg xmlns="http://www.w3.org/2000/svg" width="512" height="512" viewBox="0 0 512 512">
  <defs>
    <linearGradient id="sky" x1="0" y1="0" x2="1" y2="1">
      <stop offset="0%" stop-color="#0f172a"/>
      <stop offset="100%" stop-color="#2e1065"/>
    </linearGradient>
  </defs>
  <rect width="512" height="512" rx="100" fill="url(#sky)"/>
  <circle cx="400" cy="77" r="4" fill="#fff" opacity="0.2"/>
  <circle cx="60" cy="180" r="3" fill="#fff" opacity="0.25"/>
  <circle cx="100" cy="50" r="3" fill="#fff" opacity="0.2"/>
  <circle cx="250" cy="40" r="2" fill="#fff" opacity="0.25"/>
  <circle cx="45" cy="280" r="2" fill="#fff" opacity="0.2"/>
  <circle cx="380" cy="260" r="3" fill="#fff" opacity="0.2"/>
  <circle cx="340" cy="30" r="2" fill="#fff" opacity="0.25"/>
  <circle cx="130" cy="360" r="2" fill="#fff" opacity="0.2"/>
  <circle cx="450" cy="180" r="2" fill="#fff" opacity="0.25"/>
  <circle cx="300" cy="145" r="2" fill="#fff" opacity="0.15"/>
  <circle cx="170" cy="90" r="2" fill="#fff" opacity="0.15"/>
  <circle cx="450" cy="80" r="25" fill="#fffddb"/>
  <circle cx="460" cy="75" r="24" fill="#0f172a"/>
  <g transform="translate(256,290)">
    <rect x="-72" y="-5" width="144" height="60" rx="6" fill="#f8f8ff"/>
    <rect x="-72" y="-5" width="70" height="60" rx="6" fill="#fff"/>
    <rect x="2" y="-5" width="70" height="60" rx="6" fill="#f8f8ff"/>
    <line x1="0" y1="-5" x2="0" y2="55" stroke="#ddd" stroke-width="1.5"/>
    <line x1="-55" y1="10" x2="-15" y2="10" stroke="#d0d0e0" stroke-width="3" stroke-linecap="round"/>
    <line x1="-55" y1="22" x2="-25" y2="22" stroke="#d0d0e0" stroke-width="3" stroke-linecap="round"/>
    <line x1="-55" y1="34" x2="-35" y2="34" stroke="#d0d0e0" stroke-width="3" stroke-linecap="round"/>
    <line x1="18" y1="10" x2="55" y2="10" stroke="#d0d0e0" stroke-width="3" stroke-linecap="round"/>
    <line x1="18" y1="22" x2="45" y2="22" stroke="#d0d0e0" stroke-width="3" stroke-linecap="round"/>
    <line x1="18" y1="34" x2="35" y2="34" stroke="#d0d0e0" stroke-width="3" stroke-linecap="round"/>
  </g>
  <circle cx="256" cy="195" r="40" fill="#ffd700" opacity="0.08"/>
  <circle cx="256" cy="195" r="28" fill="#ffd700" opacity="0.15"/>
  <g transform="translate(256,195)">
    <polygon points="0,-28 8,-10 27,-10 13,3 18,22 0,12 -18,22 -13,3 -27,-10 -8,-10" fill="#facc15" stroke="#f59e0b" stroke-width="2.5" stroke-linejoin="round"/>
  </g>
  <g fill="#ffcc00" opacity="0.5">
    <circle cx="232" cy="175" r="2.5"/>
    <circle cx="278" cy="170" r="2"/>
    <circle cx="242" cy="215" r="2"/>
    <circle cx="273" cy="218" r="2.5"/>
    <circle cx="220" cy="198" r="2"/>
    <circle cx="290" cy="192" r="2"/>
  </g>
</svg>
