<svg xmlns="http://www.w3.org/2000/svg" viewBox="0 0 100 100" overflow="visible">
  <defs>
    <radialGradient id="apoGlow" cx="50%" cy="50%" r="50%">
      <stop offset="25%" stop-color="transparent"/>
      <stop offset="55%" stop-color="#b91c1c" stop-opacity="0.12"/>
      <stop offset="75%" stop-color="#991b1b" stop-opacity="0.25"/>
      <stop offset="100%" stop-color="#450a0a" stop-opacity="0.85"/>
    </radialGradient>
    <filter id="redGlow2">
      <feGaussianBlur stdDeviation="2" result="blur"/>
      <feMerge>
        <feMergeNode in="blur"/>
        <feMergeNode in="SourceGraphic"/>
      </feMerge>
    </filter>
    <filter id="particleGlow">
      <feGaussianBlur stdDeviation="1" result="blur"/>
      <feMerge>
        <feMergeNode in="blur"/>
        <feMergeNode in="SourceGraphic"/>
      </feMerge>
    </filter>
  </defs>
  <rect x="0" y="0" width="100" height="100" fill="url(#apoGlow)"/>
  <g fill="none" filter="url(#redGlow2)" stroke-linecap="round">
    <path d="M0 0 L10 3 L6 12 L16 6 L12 18 L24 8 L18 22 L30 10 L24 28 L36 12 L30 32 L40 16 L36 38 L46 18 L44 40 L50 20 L50 42 L56 18 L58 40 L64 16 L66 38 L72 12 L76 32 L80 10 L86 28 L88 8 L96 22 L92 6 L100 18 L96 3 L100 12" stroke="#b91c1c" stroke-width="1.4"/>
    <path d="M0 100 L10 97 L6 88 L16 94 L12 82 L24 92 L18 78 L30 90 L24 72 L36 88 L30 68 L40 84 L36 62 L46 82 L44 60 L50 80 L50 58 L56 82 L58 60 L64 84 L66 62 L72 88 L76 68 L80 90 L86 72 L88 92 L96 78 L92 94 L100 82 L96 97 L100 88" stroke="#991b1b" stroke-width="1.4"/>
    <path d="M0 0 L4 14 L1 28 L8 16 L2 38 L10 22 L5 42 L14 28 L8 48 L18 32 L12 52 L22 34 L18 58 L28 36 L24 64 L32 38 L30 70 L36 40 L36 76 L42 42 L42 80 L48 44" stroke="#b91c1c" stroke-width="0.9" opacity="0.85"/>
    <path d="M100 0 L96 14 L99 28 L92 16 L98 38 L90 22 L95 42 L86 28 L92 48 L82 32 L88 52 L78 34 L82 58 L72 36 L76 64 L68 38 L70 70 L64 40 L64 76 L58 42 L58 80 L52 44" stroke="#b91c1c" stroke-width="0.9" opacity="0.85"/>
    <path d="M0 100 L4 86 L1 72 L8 84 L2 62 L10 78 L5 58 L14 72 L8 52 L18 68 L12 48 L22 66 L18 42 L28 64 L24 36 L32 62 L30 30 L36 60 L36 24 L42 58 L42 20 L48 56" stroke="#991b1b" stroke-width="0.9" opacity="0.85"/>
    <path d="M100 100 L96 86 L99 72 L92 84 L98 62 L90 78 L95 58 L86 72 L92 52 L82 68 L88 48 L78 66 L82 42 L72 64 L76 36 L68 62 L70 30 L64 60 L64 24 L58 58 L58 20 L52 56" stroke="#991b1b" stroke-width="0.9" opacity="0.85"/>
  </g>
  <g fill="none" opacity="0.5" filter="url(#particleGlow)">
    <path d="M22 22 L26 19 L29 24 L24 27 Z" fill="#dc2626"/>
    <path d="M72 18 L78 14 L80 22 L74 26 Z" fill="#dc2626"/>
    <path d="M18 72 L24 68 L26 76 L20 80 Z" fill="#dc2626"/>
    <path d="M78 74 L86 70 L84 80 L76 82 Z" fill="#dc2626"/>
    <path d="M10 50 L14 47 L16 52 L12 55 Z" fill="#b91c1c" opacity="0.6"/>
    <path d="M86 50 L90 47 L92 52 L88 55 Z" fill="#b91c1c" opacity="0.6"/>
    <path d="M50 10 L53 7 L56 12 L52 15 Z" fill="#b91c1c" opacity="0.6"/>
    <path d="M50 86 L53 83 L56 88 L52 91 Z" fill="#b91c1c" opacity="0.6"/>
  </g>
  <g fill="none" stroke="#7f1d1d" stroke-width="0.6" opacity="0.35">
    <circle cx="50" cy="50" r="46"/>
    <circle cx="50" cy="50" r="43"/>
    <circle cx="50" cy="50" r="40"/>
    <circle cx="50" cy="50" r="37"/>
  </g>
  <g stroke="#991b1b" stroke-width="0.4" opacity="0.3">
    <line x1="50" y1="8" x2="50" y2="20" transform="rotate(0 50 50)"/>
    <line x1="50" y1="8" x2="50" y2="20" transform="rotate(30 50 50)"/>
    <line x1="50" y1="8" x2="50" y2="20" transform="rotate(60 50 50)"/>
    <line x1="50" y1="8" x2="50" y2="20" transform="rotate(90 50 50)"/>
    <line x1="50" y1="8" x2="50" y2="20" transform="rotate(120 50 50)"/>
    <line x1="50" y1="8" x2="50" y2="20" transform="rotate(150 50 50)"/>
    <line x1="50" y1="8" x2="50" y2="20" transform="rotate(180 50 50)"/>
    <line x1="50" y1="8" x2="50" y2="20" transform="rotate(210 50 50)"/>
    <line x1="50" y1="8" x2="50" y2="20" transform="rotate(240 50 50)"/>
    <line x1="50" y1="8" x2="50" y2="20" transform="rotate(270 50 50)"/>
    <line x1="50" y1="8" x2="50" y2="20" transform="rotate(300 50 50)"/>
    <line x1="50" y1="8" x2="50" y2="20" transform="rotate(330 50 50)"/>
  </g>
  <g fill="#450a0a" opacity="0.2">
    <circle cx="30" cy="30" r="2"/>
    <circle cx="70" cy="30" r="1.5"/>
    <circle cx="30" cy="70" r="1.8"/>
    <circle cx="70" cy="70" r="2"/>
    <circle cx="50" cy="15" r="1"/>
    <circle cx="50" cy="85" r="1"/>
    <circle cx="15" cy="50" r="1.2"/>
    <circle cx="85" cy="50" r="1.2"/>
  </g>
</svg>