<svg xmlns="http://www.w3.org/2000/svg" viewBox="0 0 100 100" overflow="visible">
  <defs>
    <radialGradient id="glow" cx="50%" cy="50%" r="50%">
      <stop offset="40%" stop-color="transparent"/>
      <stop offset="65%" stop-color="#b91c1c" stop-opacity="0.15"/>
      <stop offset="80%" stop-color="#b91c1c" stop-opacity="0.3"/>
      <stop offset="100%" stop-color="#450a0a" stop-opacity="0.8"/>
    </radialGradient>
    <filter id="redGlow">
      <feGaussianBlur stdDeviation="1.5" result="blur"/>
      <feMerge>
        <feMergeNode in="blur"/>
        <feMergeNode in="SourceGraphic"/>
      </feMerge>
    </filter>
  </defs>
  <rect x="0" y="0" width="100" height="100" fill="url(#glow)"/>
  <g fill="none" filter="url(#redGlow)">
    <path d="M0 0 L12 5 L8 12 L18 8 L14 18 L25 10 L20 22 L32 12 L26 26 L38 14 L32 30 L42 16 L38 34 L46 18 L44 38 L50 20 L50 40 L56 18 L58 38 L64 16 L66 34 L72 14 L76 30 L80 12 L86 26 L88 10 L96 22 L92 8 L100 18 L96 5 L100 12" stroke="#b91c1c" stroke-width="1.2"/>
    <path d="M0 100 L10 94 L8 88 L18 92 L14 82 L25 90 L20 78 L32 86 L26 74 L38 82 L32 70 L42 78 L38 66 L46 72 L44 62 L50 80 L50 60 L56 80 L58 62 L64 72 L66 66 L72 78 L76 70 L80 82 L86 74 L88 90 L96 78 L92 94 L100 82 L96 100" stroke="#991b1b" stroke-width="1.2"/>
    <path d="M0 0 L5 15 L2 30 L8 20 L3 40 L10 25 L6 45 L14 30 L10 50 L18 35 L14 55 L22 38 L20 60 L28 40 L26 65 L32 42 L32 70 L38 44 L38 75 L44 46 L44 80 L50 48" stroke="#b91c1c" stroke-width="0.8"/>
    <path d="M100 0 L95 15 L98 30 L92 20 L97 40 L90 25 L94 45 L86 30 L90 50 L82 35 L86 55 L78 38 L80 60 L72 40 L74 65 L68 42 L68 70 L62 44 L62 75 L56 46 L56 80 L50 48" stroke="#b91c1c" stroke-width="0.8"/>
    <path d="M0 100 L5 85 L2 70 L8 80 L3 60 L10 75 L6 55 L14 70 L10 50 L18 65 L14 45 L22 62 L20 40 L28 60 L26 35 L32 58 L32 30 L38 56" stroke="#991b1b" stroke-width="0.8"/>
    <path d="M100 100 L95 85 L98 70 L92 80 L97 60 L90 75 L94 55 L86 70 L90 50 L82 65 L86 45 L78 62 L80 40 L72 60 L74 35 L68 58 L68 30 L62 56" stroke="#991b1b" stroke-width="0.8"/>
  </g>
  <g fill="none" opacity="0.4">
    <path d="M22 22 L26 20 L28 24 L24 26 Z" fill="#dc2626"/>
    <path d="M72 18 L78 16 L76 22 L70 24 Z" fill="#dc2626"/>
    <path d="M18 72 L22 70 L24 76 L20 78 Z" fill="#dc2626"/>
    <path d="M78 74 L84 72 L82 78 L76 80 Z" fill="#dc2626"/>
  </g>
  <g fill="none" stroke="#7f1d1d" stroke-width="0.5" opacity="0.3">
    <circle cx="50" cy="50" r="45"/>
    <circle cx="50" cy="50" r="42"/>
    <circle cx="50" cy="50" r="39"/>
  </g>
  <g stroke="#b91c1c" stroke-width="0.3" opacity="0.2">
    <line x1="50" y1="10" x2="50" y2="22" transform="rotate(0 50 50)"/>
    <line x1="50" y1="10" x2="50" y2="22" transform="rotate(30 50 50)"/>
    <line x1="50" y1="10" x2="50" y2="22" transform="rotate(60 50 50)"/>
    <line x1="50" y1="10" x2="50" y2="22" transform="rotate(90 50 50)"/>
    <line x1="50" y1="10" x2="50" y2="22" transform="rotate(120 50 50)"/>
    <line x1="50" y1="10" x2="50" y2="22" transform="rotate(150 50 50)"/>
    <line x1="50" y1="10" x2="50" y2="22" transform="rotate(180 50 50)"/>
    <line x1="50" y1="10" x2="50" y2="22" transform="rotate(210 50 50)"/>
    <line x1="50" y1="10" x2="50" y2="22" transform="rotate(240 50 50)"/>
    <line x1="50" y1="10" x2="50" y2="22" transform="rotate(270 50 50)"/>
    <line x1="50" y1="10" x2="50" y2="22" transform="rotate(300 50 50)"/>
    <line x1="50" y1="10" x2="50" y2="22" transform="rotate(330 50 50)"/>
  </g>
</svg>
