<svg xmlns="http://www.w3.org/2000/svg" viewBox="0 0 100 100" overflow="visible">
  <defs>
    <path id="maple" d="M0 0 L-4 -8 L-2 -10 L-6 -14 L-8 -12 L-10 -18 L-6 -16 L-4 -20 L0 -14 L2 -18 L4 -20 L4 -16 L10 -18 L8 -12 L6 -14 L2 -8 L4 -6 L0 0Z"/>
    <path id="leaf" d="M0 0 C-6 -4 -10 -12 -6 -18 C-2 -24 6 -22 8 -16 C10 -10 6 -4 0 0Z"/>
  </g>
  <g opacity="0.3" fill="none" stroke="#ef4444" stroke-width="0.5">
    <circle cx="50" cy="10" r="42"/>
    <circle cx="50" cy="90" r="42"/>
  </g>
  <g fill="#7f1d1d" opacity="0.5">
    <use href="#maple" x="15" y="15" transform="rotate(15 15 15) scale(0.8)"/>
    <use href="#maple" x="85" y="85" transform="rotate(195 85 85) scale(0.8)"/>
  </g>
  <g fill="#b91c1c" opacity="0.6">
    <use href="#leaf" x="10" y="40" transform="rotate(45 10 40) scale(0.9)"/>
    <use href="#leaf" x="90" y="60" transform="rotate(225 90 60) scale(0.9)"/>
    <use href="#leaf" x="85" y="30" transform="rotate(135 85 30) scale(0.7)"/>
    <use href="#leaf" x="50" y="8" transform="rotate(0 50 8) scale(0.6)"/>
  </g>
  <g fill="#dc2626" opacity="0.7">
    <use href="#leaf" x="12" y="65" transform="rotate(60 12 65) scale(0.8)"/>
    <use href="#leaf" x="88" y="40" transform="rotate(240 88 40) scale(0.8)"/>
    <use href="#leaf" x="20" y="88" transform="rotate(30 20 88) scale(0.6)"/>
    <use href="#leaf" x="80" y="88" transform="rotate(150 80 88) scale(0.6)"/>
  </g>
  <g fill="#ef4444" opacity="0.4">
    <use href="#maple" x="50" y="94" transform="rotate(180 50 94) scale(0.6)"/>
    <use href="#maple" x="20" y="50" transform="rotate(90 20 50) scale(0.5)"/>
    <use href="#maple" x="80" y="50" transform="rotate(270 80 50) scale(0.5)"/>
  </g>
  <g fill="#7f1d1d" opacity="0.3">
    <circle cx="8" cy="25" r="1.5"/><circle cx="92" cy="75" r="1.5"/>
    <circle cx="18" cy="10" r="1"/><circle cx="82" cy="10" r="1"/>
    <circle cx="30" cy="5" r="1.2"/><circle cx="70" cy="5" r="1.2"/>
    <circle cx="5" cy="80" r="1"/><circle cx="95" cy="20" r="1"/>
  </g>
</svg>
