<svg xmlns="http://www.w3.org/2000/svg" viewBox="0 0 100 100" overflow="visible">
  <defs>
    <linearGradient id="flameL" x1="0" y1="1" x2="0" y2="0">
      <stop offset="0%" stop-color="#991b1b"/>
      <stop offset="40%" stop-color="#dc2626"/>
      <stop offset="70%" stop-color="#fbbf24"/>
      <stop offset="100%" stop-color="#450a0a"/>
    </linearGradient>
    <linearGradient id="flameR" x1="0" y1="1" x2="0" y2="0">
      <stop offset="0%" stop-color="#991b1b"/>
      <stop offset="40%" stop-color="#dc2626"/>
      <stop offset="70%" stop-color="#fbbf24"/>
      <stop offset="100%" stop-color="#450a0a"/>
    </linearGradient>
  </defs>
  <path d="M12 90 Q8 70 14 55 Q18 42 12 30 Q10 24 14 18 L20 22 Q18 35 22 48 Q26 58 20 72 Q16 82 18 90 Z" fill="url(#flameL)" opacity="0.9"/>
  <path d="M88 90 Q92 70 86 55 Q82 42 88 30 Q90 24 86 18 L80 22 Q82 35 78 48 Q74 58 80 72 Q84 82 82 90 Z" fill="url(#flameR)" opacity="0.9"/>
  <path d="M8 90 Q4 60 10 40 L16 38 Q12 60 16 90 Z" fill="#dc2626" opacity="0.5"/>
  <path d="M92 90 Q96 60 90 40 L84 38 Q88 60 84 90 Z" fill="#dc2626" opacity="0.5"/>
  <path d="M18 90 Q14 65 20 50 L24 48 Q20 65 24 90 Z" fill="#fbbf24" opacity="0.3"/>
  <path d="M82 90 Q86 65 80 50 L76 48 Q80 65 76 90 Z" fill="#fbbf24" opacity="0.3"/>
  <rect x="12" y="90" width="76" height="4" rx="2" fill="#450a0a"/>
  <path d="M25 90 Q28 80 32 75 L36 78 Q30 85 30 90 Z" fill="#dc2626" opacity="0.4"/>
  <path d="M75 90 Q72 80 68 75 L64 78 Q70 85 70 90 Z" fill="#dc2626" opacity="0.4"/>
</svg>
