<svg xmlns="http://www.w3.org/2000/svg" viewBox="0 0 100 100" overflow="visible">
  <defs>
    <linearGradient id="flameOuter" x1="0.5" y1="1" x2="0.5" y2="0">
      <stop offset="0%" stop-color="#450a0a" stop-opacity="0.8"/>
      <stop offset="50%" stop-color="#991b1b" stop-opacity="0.5"/>
      <stop offset="100%" stop-color="#450a0a" stop-opacity="0.1"/>
    </linearGradient>
    <linearGradient id="flameMain" x1="0.5" y1="1" x2="0.5" y2="0">
      <stop offset="0%" stop-color="#991b1b"/>
      <stop offset="40%" stop-color="#dc2626"/>
      <stop offset="80%" stop-color="#991b1b"/>
      <stop offset="100%" stop-color="#450a0a"/>
    </linearGradient>
    <linearGradient id="flameInner" x1="0.5" y1="1" x2="0.5" y2="0">
      <stop offset="0%" stop-color="#dc2626"/>
      <stop offset="50%" stop-color="#fbbf24"/>
      <stop offset="100%" stop-color="#dc2626"/>
    </linearGradient>
    <linearGradient id="flameGradL" x1="0" y1="1" x2="0.5" y2="0">
      <stop offset="0%" stop-color="#450a0a" stop-opacity="0.8"/>
      <stop offset="100%" stop-color="#991b1b" stop-opacity="0.1"/>
    </linearGradient>
    <linearGradient id="flameGradR" x1="1" y1="1" x2="0.5" y2="0">
      <stop offset="0%" stop-color="#450a0a" stop-opacity="0.8"/>
      <stop offset="100%" stop-color="#991b1b" stop-opacity="0.1"/>
    </linearGradient>
  </defs>
  <!-- Left flame - outer glow -->
  <path d="M20 90 Q15 60 25 35 Q30 20 35 30 Q40 45 38 60 Q36 75 35 90 Z" fill="url(#flameOuter)" opacity="0.6"/>
  <!-- Left flame - main -->
  <path d="M22 88 Q18 62 26 40 Q30 25 34 35 Q38 48 36 62 Q34 76 33 88 Z" fill="url(#flameMain)" opacity="0.85"/>
  <!-- Left flame - inner bright -->
  <path d="M24 86 Q21 65 28 45 Q31 32 33 40 Q35 52 34 65 Q33 76 32 86 Z" fill="url(#flameInner)" opacity="0.9"/>
  <!-- Right flame - outer glow -->
  <path d="M80 90 Q85 60 75 35 Q70 20 65 30 Q60 45 62 60 Q64 75 65 90 Z" fill="url(#flameOuter)" opacity="0.6"/>
  <!-- Right flame - main -->
  <path d="M78 88 Q82 62 74 40 Q70 25 66 35 Q62 48 64 62 Q66 76 67 88 Z" fill="url(#flameMain)" opacity="0.85"/>
  <!-- Right flame - inner bright -->
  <path d="M76 86 Q79 65 72 45 Q69 32 67 40 Q65 52 66 65 Q67 76 68 86 Z" fill="url(#flameInner)" opacity="0.9"/>
  <!-- Center base glow -->
  <ellipse cx="50" cy="88" rx="18" ry="6" fill="#991b1b" opacity="0.3"/>
  <ellipse cx="50" cy="86" rx="12" ry="4" fill="#dc2626" opacity="0.2"/>
  <!-- Ember particles -->
  <circle cx="18" cy="50" r="1.5" fill="#dc2626" opacity="0.6"/>
  <circle cx="82" cy="48" r="1.5" fill="#dc2626" opacity="0.6"/>
  <circle cx="30" cy="28" r="1" fill="#fbbf24" opacity="0.5"/>
  <circle cx="70" cy="26" r="1" fill="#fbbf24" opacity="0.5"/>
  <circle cx="15" cy="70" r="1" fill="#991b1b" opacity="0.4"/>
  <circle cx="85" cy="72" r="1" fill="#991b1b" opacity="0.4"/>
</svg>