<svg xmlns="http://www.w3.org/2000/svg" viewBox="0 0 100 100" overflow="visible">
  <defs>
    <radialGradient id="chaosGrad" cx="50%" cy="50%" r="50%">
      <stop offset="15%" stop-color="#7c3aed" stop-opacity="0.15"/>
      <stop offset="40%" stop-color="#a855f7" stop-opacity="0.08"/>
      <stop offset="70%" stop-color="#581c87" stop-opacity="0.2"/>
      <stop offset="100%" stop-color="#1e1b4b" stop-opacity="0.9"/>
    </radialGradient>
    <filter id="chaosBlur">
      <feGaussianBlur stdDeviation="1.5" result="blur"/>
      <feMerge><feMergeNode in="blur"/><feMergeNode in="SourceGraphic"/></feMerge>
    </filter>
    <filter id="chaosGlow">
      <feGaussianBlur stdDeviation="2.5" result="blur"/>
      <feMerge><feMergeNode in="blur"/><feMergeNode in="blur"/><feMergeNode in="SourceGraphic"/></feMerge>
    </filter>
  </defs>
  <circle cx="50" cy="50" r="48" fill="url(#chaosGrad)"/>
  <g fill="none" stroke="#7c3aed" stroke-width="1.2" opacity="0.6" filter="url(#chaosBlur)">
    <path d="M10 50 Q25 20 50 50 Q75 80 90 50"/>
    <path d="M50 10 Q20 25 50 50 Q80 75 50 90"/>
    <path d="M15 15 Q50 30 85 15"/>
    <path d="M15 85 Q50 70 85 85"/>
  </g>
  <g fill="none" stroke="#a855f7" stroke-width="0.8" opacity="0.45" filter="url(#chaosBlur)">
    <path d="M20 50 Q35 30 50 50 Q65 70 80 50"/>
    <path d="M50 20 Q30 35 50 50 Q70 65 50 80"/>
    <ellipse cx="50" cy="50" rx="30" ry="15" transform="rotate(45 50 50)"/>
    <ellipse cx="50" cy="50" rx="30" ry="15" transform="rotate(-45 50 50)"/>
  </g>
  <g fill="none" stroke="#c084fc" stroke-width="0.5" opacity="0.3">
    <circle cx="50" cy="50" r="42" stroke-dasharray="4 6"/>
    <circle cx="50" cy="50" r="36" stroke-dasharray="2 8"/>
    <circle cx="50" cy="50" r="30" stroke-dasharray="6 4"/>
  </g>
  <g fill="#7c3aed" filter="url(#chaosGlow)" opacity="0.5">
    <circle cx="25" cy="25" r="2"/>
    <circle cx="75" cy="25" r="1.8"/>
    <circle cx="25" cy="75" r="2.2"/>
    <circle cx="75" cy="75" r="1.5"/>
    <circle cx="50" cy="12" r="1.2"/>
    <circle cx="50" cy="88" r="1.2"/>
    <circle cx="12" cy="50" r="1.4"/>
    <circle cx="88" cy="50" r="1.4"/>
  </g>
  <g fill="#c084fc" opacity="0.35">
    <circle cx="35" cy="18" r="0.8"/>
    <circle cx="65" cy="18" r="0.8"/>
    <circle cx="18" cy="35" r="0.6"/>
    <circle cx="82" cy="35" r="0.6"/>
    <circle cx="35" cy="82" r="0.8"/>
    <circle cx="65" cy="82" r="0.8"/>
    <circle cx="18" cy="65" r="0.6"/>
    <circle cx="82" cy="65" r="0.6"/>
  </g>
  <g fill="none" stroke="#581c87" stroke-width="0.4" opacity="0.25" stroke-dasharray="1 3">
    <path d="M10 10 L90 90"/>
    <path d="M90 10 L10 90"/>
    <path d="M50 2 L50 98"/>
    <path d="M2 50 L98 50"/>
  </g>
</svg>