<svg xmlns="http://www.w3.org/2000/svg" viewBox="0 0 100 100" overflow="visible">
  <defs>
    <path id="sakura" d="M0 0 C-2 -6 -8 -8 -10 -4 C-12 0 -8 4 -6 2 C-4 0 -2 2 0 6 C2 2 4 0 6 2 C8 4 12 0 10 -4 C8 -8 2 -6 0 0Z"/>
    <path id="petal" d="M0 0 C-4 -5 -6 -12 -3 -16 C0 -20 6 -18 7 -12 C8 -6 4 -2 0 0Z"/>
  </defs>
  <g opacity="0.3" fill="none" stroke="#f472b6" stroke-width="0.5">
    <circle cx="50" cy="10" r="42"/>
    <circle cx="50" cy="90" r="42"/>
  </g>
  <g fill="#9d174d" opacity="0.5">
    <use href="#sakura" x="15" y="12" transform="rotate(0 15 12) scale(0.9)"/>
    <use href="#sakura" x="85" y="88" transform="rotate(180 85 88) scale(0.9)"/>
  </g>
  <g fill="#db2777" opacity="0.6">
    <use href="#sakura" x="85" y="12" transform="rotate(90 85 12) scale(0.8)"/>
    <use href="#sakura" x="15" y="88" transform="rotate(270 15 88) scale(0.8)"/>
    <use href="#sakura" x="50" y="5" transform="rotate(0 50 5) scale(0.6)"/>
    <use href="#sakura" x="50" y="95" transform="rotate(180 50 95) scale(0.6)"/>
  </g>
  <g fill="#ec4899" opacity="0.7">
    <use href="#petal" x="8" y="35" transform="rotate(45 8 35) scale(0.8)"/>
    <use href="#petal" x="92" y="65" transform="rotate(225 92 65) scale(0.8)"/>
    <use href="#petal" x="92" y="35" transform="rotate(135 92 35) scale(0.7)"/>
    <use href="#petal" x="8" y="65" transform="rotate(315 8 65) scale(0.7)"/>
    <use href="#petal" x="20" y="8" transform="rotate(20 20 8) scale(0.6)"/>
    <use href="#petal" x="80" y="8" transform="rotate(160 80 8) scale(0.6)"/>
  </g>
  <g fill="#f472b6" opacity="0.4">
    <use href="#petal" x="10" y="50" transform="rotate(60 10 50) scale(0.6)"/>
    <use href="#petal" x="90" y="50" transform="rotate(240 90 50) scale(0.6)"/>
    <use href="#petal" x="30" y="92" transform="rotate(30 30 92) scale(0.5)"/>
    <use href="#petal" x="70" y="92" transform="rotate(150 70 92) scale(0.5)"/>
    <use href="#petal" x="25" y="8" transform="rotate(10 25 8) scale(0.5)"/>
    <use href="#petal" x="75" y="8" transform="rotate(170 75 8) scale(0.5)"/>
  </g>
  <g fill="#9d174d" opacity="0.3">
    <circle cx="5" cy="20" r="1"/><circle cx="95" cy="20" r="1"/>
    <circle cx="5" cy="80" r="1"/><circle cx="95" cy="80" r="1"/>
    <circle cx="20" cy="5" r="1.2"/><circle cx="80" cy="5" r="1.2"/>
    <circle cx="20" cy="95" r="1.2"/><circle cx="80" cy="95" r="1.2"/>
  </g>
</svg>
