<svg xmlns="http://www.w3.org/2000/svg" viewBox="0 0 100 100" overflow="visible">
  <defs>
    <linearGradient id="sakuraGrad1" x1="0" y1="0" x2="1" y2="1">
      <stop offset="0%" stop-color="#f472b6"/>
      <stop offset="50%" stop-color="#ec4899"/>
      <stop offset="100%" stop-color="#9d174d"/>
    </linearGradient>
    <linearGradient id="sakuraGrad2" x1="0" y1="0" x2="0" y2="1">
      <stop offset="0%" stop-color="#fce7f3"/>
      <stop offset="50%" stop-color="#f472b6"/>
      <stop offset="100%" stop-color="#db2777"/>
    </linearGradient>
    <linearGradient id="sakuraGrad3" x1="0" y1="0" x2="1" y2="0">
      <stop offset="0%" stop-color="#fdf2f8"/>
      <stop offset="50%" stop-color="#f9a8d4"/>
      <stop offset="100%" stop-color="#ec4899"/>
    </linearGradient>
    <filter id="sakuraGlow" x="-50%" y="-50%" width="200%" height="200%">
      <feGaussianBlur in="SourceGraphic" stdDeviation="1.2" result="blur"/>
      <feMerge>
        <feMergeNode in="blur"/>
        <feMergeNode in="SourceGraphic"/>
      </feMerge>
    </filter>
    <filter id="bloomGlow" x="-100%" y="-100%" width="300%" height="300%">
      <feGaussianBlur in="SourceGraphic" stdDeviation="2" result="blur"/>
      <feMerge>
        <feMergeNode in="blur"/>
        <feMergeNode in="blur"/>
        <feMergeNode in="SourceGraphic"/>
      </feMerge>
    </filter>
    <g id="sakuraFlower">
      <path d="M0-7C-1.5-4-4-2-5 1C-4 4-1 5 0 3C1 5 4 4 5 1C4-2 1.5-4 0-7Z"/>
      <path d="M0-7C-1.5-4-4-2-5 1C-4 4-1 5 0 3C1 5 4 4 5 1C4-2 1.5-4 0-7Z" transform="rotate(72)"/>
      <path d="M0-7C-1.5-4-4-2-5 1C-4 4-1 5 0 3C1 5 4 4 5 1C4-2 1.5-4 0-7Z" transform="rotate(144)"/>
      <path d="M0-7C-1.5-4-4-2-5 1C-4 4-1 5 0 3C1 5 4 4 5 1C4-2 1.5-4 0-7Z" transform="rotate(216)"/>
      <path d="M0-7C-1.5-4-4-2-5 1C-4 4-1 5 0 3C1 5 4 4 5 1C4-2 1.5-4 0-7Z" transform="rotate(288)"/>
      <circle cx="0" cy="0" r="1.5" fill="#9d174d" opacity="0.7"/>
    </g>
    <path id="petalFloat" d="M0 0 C-3 -4 -5 -10 -2 -13 C1 -16 5 -14 5 -9 C5 -4 2 -1 0 0Z"/>
  </defs>
  <g filter="url(#bloomGlow)">
    <g transform="translate(14,12)">
      <use href="#sakuraFlower" transform="rotate(0) scale(1)" fill="url(#sakuraGrad1)" opacity="0.9"/>
    </g>
    <g transform="translate(86,88)">
      <use href="#sakuraFlower" transform="rotate(180) scale(1)" fill="url(#sakuraGrad2)" opacity="0.9"/>
    </g>
    <g transform="translate(86,12)">
      <use href="#sakuraFlower" transform="rotate(90) scale(0.85)" fill="url(#sakuraGrad1)" opacity="0.85"/>
    </g>
    <g transform="translate(14,88)">
      <use href="#sakuraFlower" transform="rotate(270) scale(0.85)" fill="url(#sakuraGrad2)" opacity="0.85"/>
    </g>
  </g>
  <g filter="url(#sakuraGlow)">
    <g transform="translate(50,5)">
      <use href="#sakuraFlower" transform="rotate(0) scale(0.65)" fill="url(#sakuraGrad3)" opacity="0.8"/>
    </g>
    <g transform="translate(50,95)">
      <use href="#sakuraFlower" transform="rotate(180) scale(0.65)" fill="url(#sakuraGrad3)" opacity="0.8"/>
    </g>
    <g transform="translate(5,50)">
      <use href="#sakuraFlower" transform="rotate(90) scale(0.55)" fill="url(#sakuraGrad1)" opacity="0.75"/>
    </g>
    <g transform="translate(95,50)">
      <use href="#sakuraFlower" transform="rotate(270) scale(0.55)" fill="url(#sakuraGrad2)" opacity="0.75"/>
    </g>
  </g>
  <g filter="url(#sakuraGlow)" opacity="0.75">
    <g transform="translate(8,35)">
      <use href="#petalFloat" transform="rotate(45) scale(0.8)" fill="url(#sakuraGrad1)"/>
    </g>
    <g transform="translate(92,65)">
      <use href="#petalFloat" transform="rotate(225) scale(0.8)" fill="url(#sakuraGrad2)"/>
    </g>
    <g transform="translate(92,35)">
      <use href="#petalFloat" transform="rotate(135) scale(0.7)" fill="url(#sakuraGrad3)"/>
    </g>
    <g transform="translate(8,65)">
      <use href="#petalFloat" transform="rotate(315) scale(0.7)" fill="url(#sakuraGrad1)"/>
    </g>
  </g>
  <g filter="url(#sakuraGlow)" opacity="0.6">
    <g transform="translate(20,8)">
      <use href="#petalFloat" transform="rotate(20) scale(0.55)" fill="#f472b6"/>
    </g>
    <g transform="translate(80,8)">
      <use href="#petalFloat" transform="rotate(160) scale(0.55)" fill="#f472b6"/>
    </g>
    <g transform="translate(10,50)">
      <use href="#petalFloat" transform="rotate(70) scale(0.5)" fill="#ec4899"/>
    </g>
    <g transform="translate(90,50)">
      <use href="#petalFloat" transform="rotate(250) scale(0.5)" fill="#ec4899"/>
    </g>
    <g transform="translate(30,92)">
      <use href="#petalFloat" transform="rotate(30) scale(0.45)" fill="#db2777"/>
    </g>
    <g transform="translate(70,92)">
      <use href="#petalFloat" transform="rotate(150) scale(0.45)" fill="#db2777"/>
    </g>
  </g>
  <g fill="#9d174d" opacity="0.4">
    <circle cx="5" cy="20" r="1.2"/>
    <circle cx="95" cy="20" r="1.2"/>
    <circle cx="5" cy="80" r="1.2"/>
    <circle cx="95" cy="80" r="1.2"/>
    <circle cx="20" cy="5" r="1"/>
    <circle cx="80" cy="5" r="1"/>
    <circle cx="20" cy="95" r="1"/>
    <circle cx="80" cy="95" r="1"/>
  </g>
  <g fill="#ec4899" opacity="0.3">
    <circle cx="28" cy="10" r="0.8"/>
    <circle cx="72" cy="10" r="0.8"/>
    <circle cx="10" cy="28" r="0.8"/>
    <circle cx="90" cy="28" r="0.8"/>
    <circle cx="10" cy="72" r="0.8"/>
    <circle cx="90" cy="72" r="0.8"/>
    <circle cx="28" cy="90" r="0.8"/>
    <circle cx="72" cy="90" r="0.8"/>
  </g>
</svg>