<svg xmlns="http://www.w3.org/2000/svg" viewBox="0 0 100 100" overflow="visible">
  <defs>
    <radialGradient id="eyeGlow" cx="50%" cy="50%" r="50%">
      <stop offset="10%" stop-color="#dc2626" stop-opacity="0.2"/>
      <stop offset="40%" stop-color="#991b1b" stop-opacity="0.1"/>
      <stop offset="100%" stop-color="#1c1917" stop-opacity="0"/>
    </radialGradient>
    <radialGradient id="irisGrad" cx="45%" cy="45%" r="50%">
      <stop offset="0%" stop-color="#fca5a5"/>
      <stop offset="30%" stop-color="#dc2626"/>
      <stop offset="70%" stop-color="#991b1b"/>
      <stop offset="100%" stop-color="#450a0a"/>
    </radialGradient>
    <filter id="eyeBlur">
      <feGaussianBlur stdDeviation="1.2" result="blur"/>
      <feMerge><feMergeNode in="blur"/><feMergeNode in="SourceGraphic"/></feMerge>
    </filter>
    <filter id="pupilGlow">
      <feGaussianBlur stdDeviation="0.6" result="blur"/>
      <feMerge><feMergeNode in="blur"/><feMergeNode in="SourceGraphic"/></feMerge>
    </filter>
  </defs>
  <circle cx="50" cy="50" r="48" fill="url(#eyeGlow)"/>
  <g filter="url(#eyeBlur)">
    <ellipse cx="50" cy="50" rx="38" ry="22" fill="none" stroke="#991b1b" stroke-width="2" opacity="0.7"/>
    <ellipse cx="50" cy="50" rx="38" ry="22" fill="#1c1917" opacity="0.3"/>
  </g>
  <circle cx="50" cy="50" r="16" fill="url(#irisGrad)" stroke="#991b1b" stroke-width="1.2"/>
  <circle cx="50" cy="50" r="6" fill="#0c0a09"/>
  <circle cx="50" cy="50" r="3" fill="#1c1917"/>
  <circle cx="47" cy="47" r="2" fill="#fca5a5" opacity="0.6" filter="url(#pupilGlow)"/>
  <circle cx="53" cy="46" r="1" fill="#fecaca" opacity="0.4"/>
  <g fill="none" stroke="#dc2626" stroke-width="0.5" opacity="0.35">
    <path d="M50 34 L50 28"/>
    <path d="M50 66 L50 72"/>
    <path d="M34 50 L28 50"/>
    <path d="M66 50 L72 50"/>
    <path d="M39 39 L34 34"/>
    <path d="M61 39 L66 34"/>
    <path d="M39 61 L34 66"/>
    <path d="M61 61 L66 66"/>
  </g>
  <g fill="#dc2626" opacity="0.3">
    <circle cx="25" cy="42" r="1"/>
    <circle cx="75" cy="42" r="1"/>
    <circle cx="30" cy="60" r="0.8"/>
    <circle cx="70" cy="60" r="0.8"/>
    <circle cx="50" cy="75" r="0.6"/>
  </g>
  <g fill="none" stroke="#450a0a" stroke-width="0.3" opacity="0.2" stroke-dasharray="2 5">
    <circle cx="50" cy="50" r="42"/>
    <circle cx="50" cy="50" r="36"/>
  </g>
</svg>