<svg xmlns="http://www.w3.org/2000/svg" viewBox="0 0 100 100" overflow="visible">
  <defs>
    <radialGradient id="haloGlow" cx="50%" cy="50%" r="50%">
      <stop offset="20%" stop-color="#fbbf24" stop-opacity="0.12"/>
      <stop offset="50%" stop-color="#f59e0b" stop-opacity="0.06"/>
      <stop offset="100%" stop-color="#1c1917" stop-opacity="0"/>
    </radialGradient>
    <linearGradient id="burstGrad" x1="0" y1="0" x2="1" y2="1">
      <stop offset="0%" stop-color="#fbbf24"/>
      <stop offset="40%" stop-color="#f59e0b"/>
      <stop offset="100%" stop-color="#dc2626"/>
    </linearGradient>
    <filter id="haloGlow2">
      <feGaussianBlur stdDeviation="1.5" result="blur"/>
      <feMerge>
        <feMergeNode in="blur"/>
        <feMergeNode in="SourceGraphic"/>
      </feMerge>
    </filter>
    <filter id="sparkGlow">
      <feGaussianBlur stdDeviation="0.6" result="blur"/>
      <feMerge>
        <feMergeNode in="blur"/>
        <feMergeNode in="SourceGraphic"/>
      </feMerge>
    </filter>
  </defs>
  <circle cx="50" cy="50" r="48" fill="url(#haloGlow)"/>
  <g fill="none" stroke-width="1.6" filter="url(#haloGlow2)" stroke-linejoin="round">
    <polygon points="50,2 54,12 62,6 58,18 70,12 64,24 76,20 68,32 80,30 72,40 84,40 74,48 86,50 74,52 84,60 72,60 80,70 68,68 76,80 64,76 70,88 58,82 62,94 54,88 50,98 46,88 38,94 42,82 30,88 34,76 24,80 32,68 20,70 28,60 16,60 26,52 14,50 26,48 16,40 28,40 20,30 32,32 24,20 36,24 30,12 42,18 38,6 46,12" stroke="#fbbf24"/>
    <polygon points="50,8 53,14 58,10 56,18 64,14 60,22 68,20 64,28 72,28 66,34 74,36 68,42 76,44 68,48 76,52 68,54 74,60 66,60 72,66 64,64 68,72 60,68 64,76 56,72 58,80 53,76 50,84 47,76 42,80 44,72 36,76 40,68 32,72 36,64 28,66 34,60 26,60 32,54 24,52 32,48 24,44 32,42 26,36 34,34 28,28 36,28 32,20 40,22 36,14 44,18 42,10 47,14" stroke="#f43f5e" stroke-width="0.8" opacity="0.7"/>
  </g>
  <g fill="none" stroke="url(#burstGrad)" stroke-width="0.5" opacity="0.55" filter="url(#haloGlow2)">
    <polygon points="50,6 52,14 58,10 55,18 64,14 60,22 68,20 64,28 72,28 66,34 74,36 68,42 76,44 68,48 76,52 68,54 74,60 66,60 72,66 64,64 68,72 60,68 64,76 56,72 58,80 53,76 50,84 47,76 42,80 44,72 36,76 40,68 32,72 36,64 28,66 34,60 26,60 32,54 24,52 32,48 24,44 32,42 26,36 34,34 28,28 36,28 32,20 40,22 36,14 44,18 42,10 47,14"/>
  </g>
  <g fill="none" stroke="#dc2626" stroke-width="0.5" opacity="0.4">
    <line x1="50" y1="2" x2="50" y2="24"/>
    <line x1="50" y1="76" x2="50" y2="98"/>
    <line x1="2" y1="50" x2="24" y2="50"/>
    <line x1="76" y1="50" x2="98" y2="50"/>
    <line x1="14" y1="14" x2="30" y2="30"/>
    <line x1="70" y1="70" x2="86" y2="86"/>
    <line x1="86" y1="14" x2="70" y2="30"/>
    <line x1="14" y1="86" x2="30" y2="70"/>
  </g>
  <g fill="none" stroke="#f59e0b" stroke-width="0.4" opacity="0.45" stroke-dasharray="3 4">
    <circle cx="50" cy="50" r="44"/>
    <circle cx="50" cy="50" r="40"/>
    <circle cx="50" cy="50" r="36" stroke-dasharray="2 5"/>
  </g>
  <g fill="none" stroke="#1c1917" stroke-width="2.5" opacity="0.35">
    <circle cx="50" cy="50" r="32"/>
    <circle cx="50" cy="50" r="31" stroke="#fbbf24" stroke-width="0.4" opacity="0.5"/>
    <circle cx="50" cy="50" r="30" stroke="#f59e0b" stroke-width="0.3" opacity="0.4"/>
  </g>
  <g fill="#fbbf24" filter="url(#sparkGlow)" opacity="0.65">
    <polygon points="28,28 29.2,30.5 32,30.5 30,32 30.8,35 28,33.5 25.2,35 26,32 24,30.5 26.8,30.5"/>
    <polygon points="72,28 73.2,30.5 76,30.5 74,32 74.8,35 72,33.5 69.2,35 70,32 68,30.5 70.8,30.5"/>
    <polygon points="28,72 29.2,74.5 32,74.5 30,76 30.8,79 28,77.5 25.2,79 26,76 24,74.5 26.8,74.5"/>
    <polygon points="72,72 73.2,74.5 76,74.5 74,76 74.8,79 72,77.5 69.2,79 70,76 68,74.5 70.8,74.5"/>
  </g>
  <g fill="#f43f5e" opacity="0.4" filter="url(#sparkGlow)">
    <circle cx="18" cy="18" r="1.2"/>
    <circle cx="82" cy="18" r="1.2"/>
    <circle cx="18" cy="82" r="1.2"/>
    <circle cx="82" cy="82" r="1.2"/>
    <circle cx="50" cy="6" r="1"/>
    <circle cx="50" cy="94" r="1"/>
    <circle cx="6" cy="50" r="1"/>
    <circle cx="94" cy="50" r="1"/>
  </g>
  <g fill="none" stroke="#fbbf24" stroke-width="0.3" opacity="0.3">
    <line x1="28" y1="28" x2="36" y2="20"/>
    <line x1="72" y1="28" x2="64" y2="20"/>
    <line x1="28" y1="72" x2="36" y2="80"/>
    <line x1="72" y1="72" x2="64" y2="80"/>
    <line x1="28" y1="28" x2="20" y2="36"/>
    <line x1="28" y1="72" x2="20" y2="64"/>
    <line x1="72" y1="28" x2="80" y2="36"/>
    <line x1="72" y1="72" x2="80" y2="64"/>
  </g>
</svg>