<svg xmlns="http://www.w3.org/2000/svg" viewBox="0 0 100 100" overflow="visible">
  <defs>
    <radialGradient id="gazeGlow" cx="50%" cy="45%" r="55%">
      <stop offset="10%" stop-color="#fbbf24" stop-opacity="0.2"/>
      <stop offset="40%" stop-color="#dc2626" stop-opacity="0.1"/>
      <stop offset="100%" stop-color="#450a0a" stop-opacity="0"/>
    </radialGradient>
    <linearGradient id="gazeGrad" x1="0" y1="0" x2="0" y2="1">
      <stop offset="0%" stop-color="#fbbf24"/>
      <stop offset="50%" stop-color="#dc2626"/>
      <stop offset="100%" stop-color="#7f1d1d"/>
    </linearGradient>
    <filter id="gazeBlur">
      <feGaussianBlur stdDeviation="1.5" result="blur"/>
      <feMerge><feMergeNode in="blur"/><feMergeNode in="SourceGraphic"/></feMerge>
    </filter>
    <filter id="gazeGlow2">
      <feGaussianBlur stdDeviation="2" result="blur"/>
      <feMerge><feMergeNode in="blur"/><feMergeNode in="blur"/><feMergeNode in="SourceGraphic"/></feMerge>
    </filter>
  </defs>
  <circle cx="50" cy="50" r="48" fill="url(#gazeGlow)"/>
  <g filter="url(#gazeBlur)">
    <polygon points="50,10 85,30 85,70 50,90 15,70 15,30" fill="none" stroke="url(#gazeGrad)" stroke-width="2" opacity="0.7"/>
    <polygon points="50,18 78,34 78,66 50,82 22,66 22,34" fill="none" stroke="#fbbf24" stroke-width="0.8" opacity="0.4"/>
  </g>
  <g filter="url(#gazeGlow2)">
    <circle cx="50" cy="48" r="14" fill="none" stroke="#dc2626" stroke-width="1.8" opacity="0.7"/>
    <circle cx="50" cy="48" r="8" fill="#dc2626" opacity="0.3"/>
    <circle cx="50" cy="48" r="4" fill="#fbbf24" opacity="0.6"/>
    <circle cx="48" cy="46" r="1.5" fill="#fef3c7" opacity="0.5"/>
  </g>
  <g fill="none" stroke="#fbbf24" stroke-width="0.5" opacity="0.35">
    <line x1="50" y1="10" x2="50" y2="30"/>
    <line x1="50" y1="66" x2="50" y2="90"/>
    <line x1="15" y1="30" x2="32" y2="38"/>
    <line x1="68" y1="38" x2="85" y2="30"/>
    <line x1="15" y1="70" x2="32" y2="62"/>
    <line x1="68" y1="62" x2="85" y2="70"/>
  </g>
  <g fill="#fbbf24" opacity="0.35">
    <circle cx="50" cy="12" r="1.5"/>
    <circle cx="50" cy="88" r="1.5"/>
    <circle cx="16" cy="30" r="1.2"/>
    <circle cx="84" cy="30" r="1.2"/>
    <circle cx="16" cy="70" r="1.2"/>
    <circle cx="84" cy="70" r="1.2"/>
  </g>
  <g fill="none" stroke="#7f1d1d" stroke-width="0.3" opacity="0.2" stroke-dasharray="2 5">
    <circle cx="50" cy="48" r="42"/>
    <circle cx="50" cy="48" r="36"/>
  </g>
</svg>