<svg xmlns="http://www.w3.org/2000/svg" viewBox="0 0 100 100" overflow="visible">
  <defs>
    <linearGradient id="halo" x1="0" y1="0" x2="1" y2="1">
      <stop offset="0%" stop-color="#fbbf24"/>
      <stop offset="50%" stop-color="#f59e0b"/>
      <stop offset="100%" stop-color="#dc2626"/>
    </linearGradient>
    <filter id="haloGlow">
      <feGaussianBlur stdDeviation="0.6" result="blur"/>
      <feMerge>
        <feMergeNode in="blur"/>
        <feMergeNode in="SourceGraphic"/>
      </feMerge>
    </filter>
  </defs>
  <g fill="none" stroke-width="1.2" filter="url(#haloGlow)">
    <polygon points="50,4 53,12 61,8 57,16 66,14 60,22 70,22 62,28 72,30 64,36 74,38 64,44 72,48 62,50 50,50" stroke="#fbbf24"/>
    <polygon points="50,96 47,88 39,92 43,84 34,86 40,78 30,78 38,72 28,70 36,64 26,62 36,56 28,52 38,50 50,50" stroke="#f43f5e"/>
    <polygon points="4,50 12,47 8,39 16,43 14,34 22,40 22,30 28,38 30,28 36,36 38,26 44,36 48,28 50,38 50,50" stroke="#fbbf24"/>
    <polygon points="96,50 88,53 92,61 84,57 86,66 78,60 78,70 72,62 70,72 64,64 62,74 56,64 52,72 50,62 50,50" stroke="#f43f5e"/>
  </g>
  <g fill="none" stroke="#fbbf24" stroke-width="0.4" opacity="0.5">
    <polygon points="50,8 52,14 58,12 55,18 62,16 58,22 64,20 60,26 66,24 62,30 68,28 64,34 68,36 62,40 66,44 60,46 56,48 50,50"/>
    <polygon points="50,92 48,86 42,88 45,82 38,84 42,78 36,80 40,74 34,76 38,70 32,72 36,66 32,64 38,60 34,56 40,54 44,52 50,50"/>
  </g>
  <g fill="none" stroke="#dc2626" stroke-width="0.3" opacity="0.3">
    <line x1="50" y1="4" x2="50" y2="25"/>
    <line x1="50" y1="75" x2="50" y2="96"/>
    <line x1="4" y1="50" x2="25" y2="50"/>
    <line x1="75" y1="50" x2="96" y2="50"/>
    <line x1="18" y1="18" x2="32" y2="32"/>
    <line x1="68" y1="68" x2="82" y2="82"/>
    <line x1="82" y1="18" x2="68" y2="32"/>
    <line x1="18" y1="82" x2="32" y2="68"/>
  </g>
  <g fill="none" stroke="#f59e0b" stroke-width="0.3" opacity="0.4" stroke-dasharray="2 3">
    <circle cx="50" cy="50" r="42"/>
    <circle cx="50" cy="50" r="38"/>
  </g>
  <g fill="none" stroke="#1c1917" stroke-width="2" opacity="0.3">
    <circle cx="50" cy="50" r="35"/>
    <circle cx="50" cy="50" r="34" stroke="#fbbf24" stroke-width="0.3" opacity="0.5"/>
  </g>
  <g fill="#fbbf24" filter="url(#haloGlow)" opacity="0.4">
    <polygon points="30,30 31,32 33,31 32,33 34,34 32,35 33,37 31,36 30,38 29,36 27,37 28,35 26,34 28,33 27,31 29,32" opacity="0.6"/>
    <polygon points="70,30 71,32 73,31 72,33 74,34 72,35 73,37 71,36 70,38 69,36 67,37 68,35 66,34 68,33 67,31 69,32" opacity="0.6"/>
    <polygon points="30,70 31,72 33,71 32,73 34,74 32,75 33,77 31,76 30,78 29,76 27,77 28,75 26,74 28,73 27,71 29,72" opacity="0.6"/>
    <polygon points="70,70 71,72 73,71 72,73 74,74 72,75 73,77 71,76 70,78 69,76 67,77 68,75 66,74 68,73 67,71 69,72" opacity="0.6"/>
  </g>
</svg>
