<svg xmlns="http://www.w3.org/2000/svg" viewBox="0 0 100 100" overflow="visible">
  <defs>
    <radialGradient id="sealGlow" cx="50%" cy="50%" r="50%">
      <stop offset="30%" stop-color="#dc2626" stop-opacity="0.08"/>
      <stop offset="60%" stop-color="#991b1b" stop-opacity="0.15"/>
      <stop offset="100%" stop-color="#450a0a" stop-opacity="0.05"/>
    </radialGradient>
    <linearGradient id="goldRed" x1="0" y1="0" x2="1" y2="1">
      <stop offset="0%" stop-color="#fbbf24"/>
      <stop offset="100%" stop-color="#dc2626"/>
    </linearGradient>
    <filter id="divineGlow">
      <feGaussianBlur stdDeviation="1.2" result="blur"/>
      <feMerge>
        <feMergeNode in="blur"/>
        <feMergeNode in="SourceGraphic"/>
      </feMerge>
    </filter>
    <filter id="starGlow">
      <feGaussianBlur stdDeviation="0.8" result="blur"/>
      <feMerge>
        <feMergeNode in="blur"/>
        <feMergeNode in="SourceGraphic"/>
      </feMerge>
    </filter>
  </defs>
  <circle cx="50" cy="50" r="48" fill="url(#sealGlow)"/>
  <g fill="none" stroke-linejoin="round" filter="url(#divineGlow)">
    <rect x="6" y="6" width="88" height="88" rx="5" stroke="#991b1b" stroke-width="1.6"/>
    <rect x="10" y="10" width="80" height="80" rx="4" stroke="#450a0a" stroke-width="1"/>
    <rect x="14" y="14" width="72" height="72" rx="3" stroke="#dc2626" stroke-width="0.8"/>
    <rect x="18" y="18" width="64" height="64" rx="2" stroke="#991b1b" stroke-width="0.6"/>
  </g>
  <g fill="none" filter="url(#divineGlow)">
    <circle cx="50" cy="50" r="34" stroke="#fbbf24" stroke-width="1" stroke-dasharray="4 3"/>
    <circle cx="50" cy="50" r="30" stroke="#dc2626" stroke-width="0.7"/>
    <circle cx="50" cy="50" r="26" stroke="#991b1b" stroke-width="0.8" stroke-dasharray="2 4"/>
    <circle cx="50" cy="50" r="22" stroke="#450a0a" stroke-width="0.6"/>
    <circle cx="50" cy="50" r="18" stroke="#dc2626" stroke-width="0.5" stroke-dasharray="3 5"/>
  </g>
  <g fill="none" stroke-linejoin="round">
    <polygon points="50,14 56,28 70,28 59,37 63,52 50,43 37,52 41,37 30,28 44,28" stroke="url(#goldRed)" stroke-width="0.8" filter="url(#starGlow)" opacity="0.8"/>
    <polygon points="50,20 54,30 64,30 57,36 60,48 50,42 40,48 43,36 36,30 46,30" stroke="#dc2626" stroke-width="0.5" opacity="0.55"/>
  </g>
  <g stroke="#fbbf24" stroke-width="0.6" fill="none" opacity="0.7" filter="url(#divineGlow)">
    <line x1="50" y1="4" x2="50" y2="14"/>
    <line x1="50" y1="86" x2="50" y2="96"/>
    <line x1="4" y1="50" x2="14" y2="50"/>
    <line x1="86" y1="50" x2="96" y2="50"/>
    <line x1="16" y1="16" x2="22" y2="22"/>
    <line x1="78" y1="78" x2="84" y2="84"/>
    <line x1="84" y1="16" x2="78" y2="22"/>
    <line x1="16" y1="84" x2="22" y2="78"/>
    <line x1="50" y1="4" x2="56" y2="14" stroke-width="0.3" opacity="0.5"/>
    <line x1="50" y1="4" x2="44" y2="14" stroke-width="0.3" opacity="0.5"/>
    <line x1="50" y1="96" x2="56" y2="86" stroke-width="0.3" opacity="0.5"/>
    <line x1="50" y1="96" x2="44" y2="86" stroke-width="0.3" opacity="0.5"/>
    <line x1="4" y1="50" x2="14" y2="44" stroke-width="0.3" opacity="0.5"/>
    <line x1="4" y1="50" x2="14" y2="56" stroke-width="0.3" opacity="0.5"/>
    <line x1="96" y1="50" x2="86" y2="44" stroke-width="0.3" opacity="0.5"/>
    <line x1="96" y1="50" x2="86" y2="56" stroke-width="0.3" opacity="0.5"/>
  </g>
  <g fill="#fbbf24" opacity="0.4" filter="url(#starGlow)">
    <rect x="22" y="22" width="5" height="5" transform="rotate(45 24.5 24.5)"/>
    <rect x="73" y="22" width="5" height="5" transform="rotate(45 75.5 24.5)"/>
    <rect x="22" y="73" width="5" height="5" transform="rotate(45 24.5 75.5)"/>
    <rect x="73" y="73" width="5" height="5" transform="rotate(45 75.5 75.5)"/>
    <circle cx="50" cy="6" r="1.2"/>
    <circle cx="50" cy="94" r="1.2"/>
    <circle cx="6" cy="50" r="1.2"/>
    <circle cx="94" cy="50" r="1.2"/>
  </g>
  <g fill="none" stroke="#dc2626" stroke-width="0.35" opacity="0.3">
    <path d="M50 14 L50 86 M14 50 L86 50"/>
    <path d="M22 22 L78 78 M78 22 L22 78"/>
    <path d="M50 14 L78 22 M50 14 L22 22"/>
    <path d="M50 86 L78 78 M50 86 L22 78"/>
    <path d="M14 50 L22 22 M14 50 L22 78"/>
    <path d="M86 50 L78 22 M86 50 L78 78"/>
  </g>
  <g fill="#991b1b" opacity="0.12">
    <circle cx="50" cy="50" r="10"/>
    <circle cx="50" cy="50" r="6" fill="#fbbf24" opacity="0.18"/>
    <circle cx="50" cy="50" r="3" fill="#dc2626" opacity="0.2"/>
  </g>
  <g fill="none" stroke="#fbbf24" stroke-width="0.25" opacity="0.35">
    <circle cx="50" cy="50" r="12" stroke-dasharray="1 3"/>
    <circle cx="50" cy="50" r="15" stroke-dasharray="2 4"/>
  </g>
</svg>