<svg xmlns="http://www.w3.org/2000/svg" viewBox="0 0 100 100" width="100" height="100" overflow="visible">
  <!-- Left wing -->
  <path d="M18 35 Q8 28 2 18 Q6 30 10 42 Q14 34 18 30 Z" fill="#d1d5db" opacity="0.9"/>
  <path d="M16 40 Q6 34 1 24 Q5 34 10 46 Q14 38 18 34 Z" fill="#9ca3af" opacity="0.7"/>
  <path d="M14 46 Q5 40 2 32 Q6 40 10 50 Q13 44 16 40 Z" fill="#d1d5db" opacity="0.6"/>
  <!-- Right wing -->
  <path d="M82 35 Q92 28 98 18 Q94 30 90 42 Q86 34 82 30 Z" fill="#d1d5db" opacity="0.9"/>
  <path d="M84 40 Q94 34 99 24 Q95 34 90 46 Q86 38 82 34 Z" fill="#9ca3af" opacity="0.7"/>
  <path d="M86 46 Q95 40 98 32 Q94 40 90 50 Q87 44 84 40 Z" fill="#d1d5db" opacity="0.6"/>
</svg>
