<svg xmlns="http://www.w3.org/2000/svg" viewBox="0 0 100 100" overflow="visible">
  <defs>
    <linearGradient id="wingL1" x1="1" y1="0.5" x2="0" y2="0.5">
      <stop offset="0%" stop-color="rgba(148,163,184,0)"/>
      <stop offset="20%" stop-color="rgba(203,213,225,0.15)"/>
      <stop offset="50%" stop-color="rgba(148,163,184,0.25)"/>
      <stop offset="80%" stop-color="rgba(203,213,225,0.18)"/>
      <stop offset="100%" stop-color="rgba(148,163,184,0.05)"/>
    </linearGradient>
    <linearGradient id="wingR1" x1="0" y1="0.5" x2="1" y2="0.5">
      <stop offset="0%" stop-color="rgba(148,163,184,0)"/>
      <stop offset="20%" stop-color="rgba(203,213,225,0.15)"/>
      <stop offset="50%" stop-color="rgba(148,163,184,0.25)"/>
      <stop offset="80%" stop-color="rgba(203,213,225,0.18)"/>
      <stop offset="100%" stop-color="rgba(148,163,184,0.05)"/>
    </linearGradient>
    <linearGradient id="wingL2" x1="1" y1="0.3" x2="0" y2="0.7">
      <stop offset="0%" stop-color="rgba(203,213,225,0)"/>
      <stop offset="40%" stop-color="rgba(148,163,184,0.12)"/>
      <stop offset="100%" stop-color="rgba(203,213,225,0.04)"/>
    </linearGradient>
    <linearGradient id="wingR2" x1="0" y1="0.3" x2="1" y2="0.7">
      <stop offset="0%" stop-color="rgba(203,213,225,0)"/>
      <stop offset="40%" stop-color="rgba(148,163,184,0.12)"/>
      <stop offset="100%" stop-color="rgba(203,213,225,0.04)"/>
    </linearGradient>
    <filter id="wingGlow">
      <feGaussianBlur stdDeviation="1.5" result="blur"/>
      <feMerge>
        <feMergeNode in="blur"/>
        <feMergeNode in="SourceGraphic"/>
      </feMerge>
    </filter>
  </defs>
  <g fill="rgba(148,163,184,0.2)" stroke="rgba(203,213,225,0.15)" stroke-width="0.3" filter="url(#wingGlow)">
    <path d="M25 18 C18 12 8 16 5 24 C2 32 10 40 16 42 C8 40 0 46 -2 56 C-4 66 6 72 14 68 C8 74 6 82 12 88 C18 94 26 90 26 84 C24 76 22 68 22 60 C22 52 24 44 25 38 Z" fill="url(#wingL1)"/>
    <path d="M25 22 C20 18 12 20 10 26 C8 32 14 38 18 40 C12 38 4 42 2 52 C0 62 8 66 14 62 C10 68 8 76 14 82 C20 88 26 84 26 78 C24 72 22 64 22 58 C22 50 24 44 25 40 Z" fill="rgba(203,213,225,0.12)" opacity="0.7"/>
    <path d="M25 26 C22 24 16 26 14 30 C12 34 16 38 18 38 C14 38 8 40 6 46 C4 52 8 54 12 52 C10 56 8 62 12 68 C16 74 22 72 22 66 C22 62 22 58 22 54 C22 48 24 42 25 38 Z" fill="rgba(148,163,184,0.08)" opacity="0.5"/>
    <path d="M75 18 C82 12 92 16 95 24 C98 32 90 40 84 42 C92 40 100 46 102 56 C104 66 94 72 86 68 C92 74 94 82 88 88 C82 94 74 90 74 84 C76 76 78 68 78 60 C78 52 76 44 75 38 Z" fill="url(#wingR1)"/>
    <path d="M75 22 C80 18 88 20 90 26 C92 32 86 38 82 40 C88 38 96 42 98 52 C100 62 92 66 86 62 C90 68 92 76 86 82 C80 88 74 84 74 78 C76 72 78 64 78 58 C78 50 76 44 75 40 Z" fill="rgba(203,213,225,0.12)" opacity="0.7"/>
    <path d="M75 26 C78 24 84 26 86 30 C88 34 84 38 82 38 C86 38 92 40 94 46 C96 52 92 54 88 52 C90 56 92 62 88 68 C84 74 78 72 78 66 C78 62 78 58 78 54 C78 48 76 42 75 38 Z" fill="rgba(148,163,184,0.08)" opacity="0.5"/>
  </g>
  <g fill="none" stroke="rgba(148,163,184,0.3)" stroke-width="0.5">
    <path d="M25 30 C16 26 4 30 0 40"/>
    <path d="M25 42 C14 38 2 44 -2 54"/>
    <path d="M25 54 C16 52 4 58 2 66"/>
    <path d="M25 66 C18 66 10 72 10 80"/>
    <path d="M75 30 C84 26 96 30 100 40"/>
    <path d="M75 42 C86 38 98 44 102 54"/>
    <path d="M75 54 C84 52 96 58 98 66"/>
    <path d="M75 66 C82 66 90 72 90 80"/>
  </g>
  <g fill="none" stroke="rgba(203,213,225,0.2)" stroke-width="0.3">
    <path d="M25 34 C18 30 8 32 4 40"/>
    <path d="M25 46 C16 42 4 46 0 56"/>
    <path d="M25 58 C18 56 6 62 6 70"/>
    <path d="M25 70 C20 70 12 76 14 82"/>
    <path d="M75 34 C82 30 92 32 96 40"/>
    <path d="M75 46 C84 42 96 46 100 56"/>
    <path d="M75 58 C82 56 94 62 94 70"/>
    <path d="M75 70 C80 70 88 76 86 82"/>
  </g>
  <g fill="none" stroke="rgba(148,163,184,0.18)" stroke-width="0.25">
    <path d="M25 38 C20 34 10 34 6 42"/>
    <path d="M25 50 C18 46 6 48 2 58"/>
    <path d="M25 62 C20 60 8 64 6 72"/>
    <path d="M25 74 C22 74 14 78 16 84"/>
    <path d="M75 38 C80 34 90 34 94 42"/>
    <path d="M75 50 C82 46 94 48 98 58"/>
    <path d="M75 62 C80 60 92 64 94 72"/>
    <path d="M75 74 C78 74 86 78 84 84"/>
  </g>
  <g fill="rgba(203,213,225,0.06)" stroke="rgba(148,163,184,0.08)" stroke-width="0.2">
    <path d="M25 26 C22 22 12 20 10 28 L16 32 C18 28 22 26 25 26 Z"/>
    <path d="M25 72 C22 78 12 80 10 72 L16 68 C18 72 22 74 25 72 Z"/>
    <path d="M75 26 C78 22 88 20 90 28 L84 32 C82 28 78 26 75 26 Z"/>
    <path d="M75 72 C78 78 88 80 90 72 L84 68 C82 72 78 74 75 72 Z"/>
  </g>
  <g fill="rgba(203,213,225,0.15)" opacity="0.4" filter="url(#wingGlow)">
    <circle cx="20" cy="36" r="1.2"/>
    <circle cx="22" cy="52" r="0.8"/>
    <circle cx="18" cy="64" r="1"/>
    <circle cx="80" cy="36" r="1.2"/>
    <circle cx="78" cy="52" r="0.8"/>
    <circle cx="82" cy="64" r="1"/>
    <circle cx="14" cy="48" r="0.6"/>
    <circle cx="86" cy="48" r="0.6"/>
    <circle cx="10" cy="56" r="0.5"/>
    <circle cx="90" cy="56" r="0.5"/>
  </g>
</svg>