<svg xmlns="http://www.w3.org/2000/svg" viewBox="0 0 100 100" overflow="visible">
  <defs>
    <linearGradient id="darkWingGrad" x1="0" y1="0" x2="0" y2="1">
      <stop offset="0%" stop-color="#6b21a8"/>
      <stop offset="50%" stop-color="#3b0764"/>
      <stop offset="100%" stop-color="#1e1b4b"/>
    </linearGradient>
    <radialGradient id="fallenGlow" cx="50%" cy="50%" r="50%">
      <stop offset="20%" stop-color="#7c3aed" stop-opacity="0.12"/>
      <stop offset="60%" stop-color="#3b0764" stop-opacity="0.06"/>
      <stop offset="100%" stop-color="#1e1b4b" stop-opacity="0"/>
    </radialGradient>
    <filter id="wingGlow">
      <feGaussianBlur stdDeviation="1.2" result="blur"/>
      <feMerge><feMergeNode in="blur"/><feMergeNode in="SourceGraphic"/></feMerge>
    </filter>
  </defs>
  <circle cx="50" cy="50" r="48" fill="url(#fallenGlow)"/>
  <g filter="url(#wingGlow)">
    <path d="M15 38 Q5 28 2 15 Q8 28 14 42 Q10 35 15 30 Z" fill="url(#darkWingGrad)" opacity="0.9"/>
    <path d="M13 44 Q3 36 1 22 Q7 34 13 48 Q9 40 13 36 Z" fill="#6b21a8" opacity="0.7"/>
    <path d="M11 50 Q2 42 1 30 Q6 40 12 54 Q8 46 11 42 Z" fill="#3b0764" opacity="0.6"/>
    <path d="M85 38 Q95 28 98 15 Q92 28 86 42 Q90 35 85 30 Z" fill="url(#darkWingGrad)" opacity="0.9"/>
    <path d="M87 44 Q97 36 99 22 Q93 34 87 48 Q91 40 87 36 Z" fill="#6b21a8" opacity="0.7"/>
    <path d="M89 50 Q98 42 99 30 Q94 40 88 54 Q92 46 89 42 Z" fill="#3b0764" opacity="0.6"/>
  </g>
  <g fill="none" stroke="#7c3aed" stroke-width="0.5" opacity="0.35">
    <path d="M15 38 Q20 32 25 38"/>
    <path d="M85 38 Q80 32 75 38"/>
    <path d="M13 44 Q18 38 23 44"/>
    <path d="M87 44 Q82 38 77 44"/>
  </g>
  <g fill="#7c3aed" opacity="0.3">
    <circle cx="20" cy="25" r="1"/>
    <circle cx="80" cy="25" r="1"/>
    <circle cx="10" cy="40" r="0.8"/>
    <circle cx="90" cy="40" r="0.8"/>
    <circle cx="15" cy="55" r="0.6"/>
    <circle cx="85" cy="55" r="0.6"/>
  </g>
  <g fill="none" stroke="#4c1d95" stroke-width="0.4" opacity="0.25" stroke-dasharray="2 5">
    <circle cx="50" cy="50" r="40"/>
    <circle cx="50" cy="50" r="35"/>
  </g>
</svg>