<svg xmlns="http://www.w3.org/2000/svg" viewBox="0 0 100 100" overflow="visible">
  <defs>
    <path id="leaf1" d="M0 0 C-8 -6 -14 -18 -8 -26 C-2 -34 10 -28 12 -18 C14 -8 6 -2 0 0Z"/>
    <path id="leaf2" d="M0 0 C-6 -4 -10 -12 -6 -18 C-2 -24 6 -22 8 -16 C10 -10 6 -4 0 0Z"/>
    <path id="vine" d="M0 0 Q5 -10 0 -20 Q-5 -10 0 0Z"/>
  </defs>
  <g opacity="0.3" fill="none" stroke="#86efac" stroke-width="0.5">
    <circle cx="50" cy="10" r="42"/>
    <circle cx="50" cy="90" r="42"/>
  </g>
  <g fill="#166534" opacity="0.5">
    <use href="#leaf1" x="8" y="15" transform="rotate(-30 8 15) scale(0.7)"/>
    <use href="#leaf1" x="92" y="85" transform="rotate(150 92 85) scale(0.7)"/>
  </g>
  <g fill="#22c55e" opacity="0.6">
    <use href="#leaf2" x="5" y="40" transform="rotate(20 5 40) scale(0.9)"/>
    <use href="#leaf2" x="95" y="60" transform="rotate(200 95 60) scale(0.9)"/>
    <use href="#leaf2" x="92" y="25" transform="rotate(160 92 25) scale(0.7)"/>
    <use href="#leaf2" x="8" y="70" transform="rotate(40 8 70) scale(0.7)"/>
  </g>
  <g fill="#4ade80" opacity="0.7">
    <use href="#leaf2" x="10" y="55" transform="rotate(50 10 55) scale(0.8)"/>
    <use href="#leaf2" x="90" y="45" transform="rotate(230 90 45) scale(0.8)"/>
    <use href="#leaf2" x="15" y="85" transform="rotate(15 15 85) scale(0.6)"/>
    <use href="#leaf2" x="85" y="12" transform="rotate(195 85 12) scale(0.6)"/>
  </g>
  <g fill="#86efac" opacity="0.4">
    <use href="#vine" x="5" y="30" transform="rotate(0 5 30) scale(0.8)"/>
    <use href="#vine" x="95" y="70" transform="rotate(180 95 70) scale(0.8)"/>
    <use href="#vine" x="5" y="75" transform="rotate(0 5 75) scale(0.6)"/>
    <use href="#vine" x="95" y="30" transform="rotate(180 95 30) scale(0.6)"/>
    <use href="#leaf2" x="50" y="96" transform="rotate(90 50 96) scale(0.5)"/>
    <use href="#leaf2" x="30" y="5" transform="rotate(0 30 5) scale(0.5)"/>
    <use href="#leaf2" x="70" y="5" transform="rotate(0 70 5) scale(0.5)"/>
  </g>
  <g fill="#166534" opacity="0.3">
    <circle cx="18" cy="10" r="1"/><circle cx="82" cy="10" r="1"/>
    <circle cx="10" cy="18" r="1"/><circle cx="90" cy="18" r="1"/>
    <circle cx="10" cy="82" r="1"/><circle cx="90" cy="82" r="1"/>
    <circle cx="18" cy="90" r="1"/><circle cx="82" cy="90" r="1"/>
  </g>
</svg>
