<svg xmlns="http://www.w3.org/2000/svg" viewBox="0 0 100 100" overflow="visible">
  <defs>
    <polygon id="frost1" points="0,-12 3,-5 10,-2 3,1 0,8 -3,1 -10,-2 -3,-5"/>
    <polygon id="frost2" points="0,-8 2,-3 7,0 2,3 0,8 -2,3 -7,0 -2,-3"/>
    <path id="branch" d="M0 0 L-4 -6 L-2 -8 L0 -4 L2 -8 L4 -6 Z"/>
    <path id="needle" d="M0 0 L-2 -8 L0 -12 L2 -8 Z"/>
  </defs>
  <g opacity="0.3" fill="none" stroke="#cbd5e1" stroke-width="0.5">
    <circle cx="50" cy="50" r="38"/>
    <circle cx="50" cy="50" r="28"/>
  </g>
  <g fill="#334155" opacity="0.5">
    <use href="#frost1" x="12" y="12" transform="rotate(0 12 12) scale(0.9)"/>
    <use href="#frost1" x="88" y="12" transform="rotate(90 88 12) scale(0.9)"/>
    <use href="#frost1" x="12" y="88" transform="rotate(270 12 88) scale(0.9)"/>
    <use href="#frost1" x="88" y="88" transform="rotate(180 88 88) scale(0.9)"/>
  </g>
  <g fill="#64748b" opacity="0.6">
    <use href="#frost2" x="50" y="6" transform="scale(0.9)"/>
    <use href="#frost2" x="6" y="50" transform="scale(0.9)"/>
    <use href="#frost2" x="94" y="50" transform="scale(0.9)"/>
    <use href="#frost2" x="50" y="94" transform="scale(0.9)"/>
  </g>
  <g fill="#94a3b8" opacity="0.7">
    <use href="#needle" x="8" y="25" transform="rotate(25 8 25) scale(0.8)"/>
    <use href="#needle" x="92" y="25" transform="rotate(155 92 25) scale(0.8)"/>
    <use href="#needle" x="8" y="75" transform="rotate(-25 8 75) scale(0.8)"/>
    <use href="#needle" x="92" y="75" transform="rotate(205 92 75) scale(0.8)"/>
    <use href="#needle" x="25" y="8" transform="rotate(65 25 8) scale(0.8)"/>
    <use href="#needle" x="75" y="8" transform="rotate(115 75 8) scale(0.8)"/>
    <use href="#needle" x="25" y="92" transform="rotate(245 25 92) scale(0.8)"/>
    <use href="#needle" x="75" y="92" transform="rotate(295 75 92) scale(0.8)"/>
  </g>
  <g fill="#cbd5e1" opacity="0.4">
    <use href="#branch" x="10" y="40" transform="rotate(10 10 40) scale(0.7)"/>
    <use href="#branch" x="90" y="40" transform="rotate(190 90 40) scale(0.7)"/>
    <use href="#branch" x="10" y="60" transform="rotate(-10 10 60) scale(0.7)"/>
    <use href="#branch" x="90" y="60" transform="rotate(170 90 60) scale(0.7)"/>
    <use href="#branch" x="40" y="8" transform="rotate(80 40 8) scale(0.7)"/>
    <use href="#branch" x="60" y="8" transform="rotate(100 60 8) scale(0.7)"/>
    <use href="#branch" x="40" y="92" transform="rotate(260 40 92) scale(0.7)"/>
    <use href="#branch" x="60" y="92" transform="rotate(280 60 92) scale(0.7)"/>
  </g>
  <g fill="#334155" opacity="0.3">
    <circle cx="15" cy="15" r="1"/><circle cx="85" cy="15" r="1"/>
    <circle cx="15" cy="85" r="1"/><circle cx="85" cy="85" r="1"/>
    <circle cx="35" cy="5" r="0.8"/><circle cx="65" cy="5" r="0.8"/>
    <circle cx="5" cy="35" r="0.8"/><circle cx="95" cy="35" r="0.8"/>
    <circle cx="5" cy="65" r="0.8"/><circle cx="95" cy="65" r="0.8"/>
    <circle cx="35" cy="95" r="0.8"/><circle cx="65" cy="95" r="0.8"/>
  </g>
</svg>
