<svg xmlns="http://www.w3.org/2000/svg" viewBox="0 0 100 100" overflow="visible">
  <defs>
    <linearGradient id="bladeGrad" x1="0" y1="0" x2="1" y2="0">
      <stop offset="0%" stop-color="#e5e7eb"/>
      <stop offset="30%" stop-color="#f9fafb"/>
      <stop offset="50%" stop-color="#ffffff"/>
      <stop offset="70%" stop-color="#f9fafb"/>
      <stop offset="100%" stop-color="#d1d5db"/>
    </linearGradient>
    <linearGradient id="hiltGrad" x1="0" y1="0" x2="0" y2="1">
      <stop offset="0%" stop-color="#fbbf24"/>
      <stop offset="50%" stop-color="#d97706"/>
      <stop offset="100%" stop-color="#92400e"/>
    </linearGradient>
    <radialGradient id="holyGlow" cx="50%" cy="30%" r="60%">
      <stop offset="0%" stop-color="#fef3c7" stop-opacity="0.25"/>
      <stop offset="50%" stop-color="#fbbf24" stop-opacity="0.08"/>
      <stop offset="100%" stop-color="#92400e" stop-opacity="0"/>
    </radialGradient>
    <filter id="swordGlow">
      <feGaussianBlur stdDeviation="1.2" result="blur"/>
      <feMerge><feMergeNode in="blur"/><feMergeNode in="SourceGraphic"/></feMerge>
    </filter>
  </defs>
  <circle cx="50" cy="50" r="48" fill="url(#holyGlow)"/>
  <g filter="url(#swordGlow)">
    <path d="M50 5 L54 15 L53 60 L50 65 L47 60 L46 15 Z" fill="url(#bladeGrad)" stroke="#d1d5db" stroke-width="0.8"/>
    <path d="M50 5 L52 12 L51 55 L50 58 L49 55 L48 12 Z" fill="#fef3c7" opacity="0.3"/>
  </g>
  <rect x="40" y="60" width="20" height="5" rx="2" fill="url(#hiltGrad)" stroke="#92400e" stroke-width="0.8"/>
  <rect x="42" y="58" width="16" height="2" rx="1" fill="#fbbf24" opacity="0.6"/>
  <path d="M46 65 L50 80 L54 65" fill="url(#hiltGrad)" stroke="#92400e" stroke-width="0.6"/>
  <circle cx="50" cy="62" r="2.5" fill="#fbbf24" stroke="#92400e" stroke-width="0.5"/>
  <circle cx="50" cy="62" r="1" fill="#fef3c7" opacity="0.7"/>
  <g fill="none" stroke="#fbbf24" stroke-width="0.5" opacity="0.4">
    <line x1="50" y1="8" x2="50" y2="20"/>
    <line x1="47" y1="10" x2="47" y2="18"/>
    <line x1="53" y1="10" x2="53" y2="18"/>
  </g>
  <g fill="#fef3c7" opacity="0.35" filter="url(#swordGlow)">
    <circle cx="50" cy="8" r="1.5"/>
    <circle cx="38" cy="30" r="0.8"/>
    <circle cx="62" cy="30" r="0.8"/>
    <circle cx="35" cy="50" r="0.6"/>
    <circle cx="65" cy="50" r="0.6"/>
  </g>
  <g fill="none" stroke="#d1d5db" stroke-width="0.3" opacity="0.25" stroke-dasharray="2 4">
    <circle cx="50" cy="40" r="35"/>
    <circle cx="50" cy="40" r="30"/>
  </g>
</svg>