<svg xmlns="http://www.w3.org/2000/svg" viewBox="0 0 100 100" overflow="visible">
  <defs>
    <polygon id="ice1" points="0,-14 4,-5 14,0 4,5 0,14 -4,5 -14,0 -4,-5"/>
    <polygon id="ice2" points="0,-10 3,-3 10,0 3,3 0,10 -3,3 -10,0 -3,-3"/>
    <path id="shard" d="M0 0 L-3 -8 L0 -12 L3 -8 Z"/>
  </defs>
  <g opacity="0.3" fill="none" stroke="#7dd3fc" stroke-width="0.5">
    <circle cx="50" cy="50" r="40"/>
    <circle cx="50" cy="50" r="30"/>
  </g>
  <g fill="#0369a1" opacity="0.5">
    <use href="#ice1" x="15" y="15" transform="rotate(0 15 15) scale(0.8)"/>
    <use href="#ice1" x="85" y="15" transform="rotate(90 85 15) scale(0.8)"/>
    <use href="#ice1" x="15" y="85" transform="rotate(270 15 85) scale(0.8)"/>
    <use href="#ice1" x="85" y="85" transform="rotate(180 85 85) scale(0.8)"/>
  </g>
  <g fill="#0ea5e9" opacity="0.6">
    <use href="#ice2" x="50" y="5" transform="scale(0.9)"/>
    <use href="#ice2" x="5" y="50" transform="scale(0.9)"/>
    <use href="#ice2" x="95" y="50" transform="scale(0.9)"/>
    <use href="#ice2" x="50" y="95" transform="scale(0.9)"/>
  </g>
  <g fill="#7dd3fc" opacity="0.7">
    <use href="#shard" x="8" y="30" transform="rotate(30 8 30)"/>
    <use href="#shard" x="92" y="30" transform="rotate(150 92 30)"/>
    <use href="#shard" x="8" y="70" transform="rotate(-30 8 70)"/>
    <use href="#shard" x="92" y="70" transform="rotate(210 92 70)"/>
    <use href="#shard" x="30" y="8" transform="rotate(60 30 8)"/>
    <use href="#shard" x="70" y="8" transform="rotate(120 70 8)"/>
    <use href="#shard" x="30" y="92" transform="rotate(240 30 92)"/>
    <use href="#shard" x="70" y="92" transform="rotate(300 70 92)"/>
  </g>
  <g fill="#bae6fd" opacity="0.4">
    <circle cx="10" cy="20" r="1"/><circle cx="90" cy="20" r="1"/>
    <circle cx="10" cy="80" r="1"/><circle cx="90" cy="80" r="1"/>
    <circle cx="20" cy="10" r="1"/><circle cx="80" cy="10" r="1"/>
    <circle cx="20" cy="90" r="1"/><circle cx="80" cy="90" r="1"/>
    <use href="#shard" x="40" y="5" transform="rotate(45 40 5) scale(0.6)"/>
    <use href="#shard" x="60" y="5" transform="rotate(135 60 5) scale(0.6)"/>
    <use href="#shard" x="5" y="40" transform="rotate(-45 5 40) scale(0.6)"/>
    <use href="#shard" x="95" y="40" transform="rotate(225 95 40) scale(0.6)"/>
    <use href="#shard" x="5" y="60" transform="rotate(45 5 60) scale(0.6)"/>
    <use href="#shard" x="95" y="60" transform="rotate(135 95 60) scale(0.6)"/>
    <use href="#shard" x="40" y="95" transform="rotate(135 40 95) scale(0.6)"/>
    <use href="#shard" x="60" y="95" transform="rotate(45 60 95) scale(0.6)"/>
  </g>
  <g fill="none" stroke="#7dd3fc" stroke-width="0.6" opacity="0.3">
    <line x1="25" y1="5" x2="25" y2="20"/><line x1="75" y1="5" x2="75" y2="20"/>
    <line x1="5" y1="25" x2="20" y2="25"/><line x1="80" y1="25" x2="95" y2="25"/>
    <line x1="5" y1="75" x2="20" y2="75"/><line x1="80" y1="75" x2="95" y2="75"/>
    <line x1="25" y1="80" x2="25" y2="95"/><line x1="75" y1="80" x2="75" y2="95"/>
  </g>
</svg>
