<svg xmlns="http://www.w3.org/2000/svg" viewBox="0 0 100 100" width="100" height="100" overflow="visible">
  <!-- Left bat wing -->
  <path d="M25 50 Q15 35 5 20 Q10 30 8 45 Q12 35 18 40 Q14 30 16 20 Q20 32 25 35 Q22 28 24 18 Q28 30 30 38 Q28 32 32 22 Q33 34 33 42 Z" fill="#312e81" opacity="0.9"/>
  <path d="M23 48 Q14 36 8 25 Q12 33 11 44 Q14 35 19 38 Q16 30 17 22 Q21 32 24 36 Q22 30 23 20 Q27 32 28 38 Q26 30 30 24 Q30 34 30 42 Z" fill="#4338ca" opacity="0.7"/>
  <!-- Right bat wing -->
  <path d="M75 50 Q85 35 95 20 Q90 30 92 45 Q88 35 82 40 Q86 30 84 20 Q80 32 75 35 Q78 28 76 18 Q72 30 70 38 Q72 32 68 22 Q67 34 67 42 Z" fill="#312e81" opacity="0.9"/>
  <path d="M77 48 Q86 36 92 25 Q88 33 89 44 Q86 35 81 38 Q84 30 83 22 Q79 32 76 36 Q78 30 77 20 Q73 32 72 38 Q74 30 70 24 Q70 34 70 42 Z" fill="#4338ca" opacity="0.7"/>
  <!-- Small wing tips -->
  <path d="M5 20 Q3 15 8 15 Q6 13 10 12 Q8 14 10 18 Z" fill="#6366f1" opacity="0.6"/>
  <path d="M95 20 Q97 15 92 15 Q94 13 90 12 Q92 14 90 18 Z" fill="#6366f1" opacity="0.6"/>
</svg>
