<svg xmlns="http://www.w3.org/2000/svg" viewBox="0 0 100 100" width="100" height="100" overflow="visible">
  <!-- Left bat wing - layer 1 -->
  <path d="M22 48 Q12 34 2 18 Q8 32 10 46 Q14 36 20 40 Q16 28 18 16 Q22 30 26 38 Q24 28 26 16 Q30 30 32 42 Z" fill="#312e81" opacity="0.9"/>
  <!-- Left bat wing - layer 2 -->
  <path d="M20 46 Q11 34 5 22 Q9 34 12 44 Q15 36 20 38 Q18 28 19 20 Q23 30 24 36 Q22 28 24 18 Q28 30 28 40 Z" fill="#4338ca" opacity="0.7"/>
  <!-- Left bat wing - layer 3 -->
  <path d="M18 44 Q10 34 4 24 Q8 34 11 42 Q14 36 18 38 Q16 30 17 22 Q21 30 22 36 Q20 30 22 20 Q26 30 26 38 Z" fill="#6366f1" opacity="0.5"/>
  <!-- Right bat wing - layer 1 -->
  <path d="M78 48 Q88 34 98 18 Q92 32 90 46 Q86 36 80 40 Q84 28 82 16 Q78 30 74 38 Q76 28 74 16 Q70 30 68 42 Z" fill="#312e81" opacity="0.9"/>
  <!-- Right bat wing - layer 2 -->
  <path d="M80 46 Q89 34 95 22 Q91 34 88 44 Q85 36 80 38 Q82 28 81 20 Q77 30 76 36 Q78 28 76 18 Q72 30 72 40 Z" fill="#4338ca" opacity="0.7"/>
  <!-- Right bat wing - layer 3 -->
  <path d="M82 44 Q90 34 96 24 Q92 34 89 42 Q86 36 82 38 Q84 30 83 22 Q79 30 78 36 Q80 30 78 20 Q74 30 74 38 Z" fill="#6366f1" opacity="0.5"/>
  <!-- Wing tips -->
  <path d="M2 18 Q0 12 5 12 Q3 10 7 9 Q5 12 7 16 Z" fill="#6366f1" opacity="0.6"/>
  <path d="M98 18 Q100 12 95 12 Q97 10 93 9 Q95 12 93 16 Z" fill="#6366f1" opacity="0.6"/>
</svg>
