<svg xmlns="http://www.w3.org/2000/svg" viewBox="0 0 100 100" width="100" height="100" overflow="visible">
  <!-- Top star -->
  <polygon points="50,8 53,18 63,18 55,24 58,34 50,28 42,34 45,24 37,18 47,18" fill="#6b7280"/>
  <polygon points="50,12 52,19 59,19 54,23 56,30 50,26 44,30 46,23 41,19 48,19" fill="#9ca3af"/>
  <!-- Bottom star -->
  <polygon points="50,66 53,76 63,76 55,82 58,92 50,86 42,92 45,82 37,76 47,76" fill="#6b7280"/>
  <polygon points="50,70 52,77 59,77 54,81 56,88 50,84 44,88 46,81 41,77 48,77" fill="#9ca3af"/>
  <!-- Small accent stars -->
  <polygon points="18,48 20,52 24,52 21,55 22,59 18,56 14,59 15,55 12,52 16,52" fill="#9ca3af" opacity="0.6"/>
  <polygon points="82,48 84,52 88,52 85,55 86,59 82,56 78,59 79,55 76,52 80,52" fill="#9ca3af" opacity="0.6"/>
</svg>
