<svg xmlns="http://www.w3.org/2000/svg" viewBox="0 0 100 100" overflow="visible">
  <defs>
    <radialGradient id="phantomGlow" cx="50%" cy="50%" r="50%">
      <stop offset="15%" stop-color="#e0e7ff" stop-opacity="0.15"/>
      <stop offset="50%" stop-color="#a5b4fc" stop-opacity="0.06"/>
      <stop offset="100%" stop-color="#312e81" stop-opacity="0"/>
    </radialGradient>
    <filter id="ghostBlur">
      <feGaussianBlur stdDeviation="2" result="blur"/>
      <feMerge><feMergeNode in="blur"/><feMergeNode in="SourceGraphic"/></feMerge>
    </filter>
    <filter id="sharpBlur">
      <feGaussianBlur stdDeviation="0.8" result="blur"/>
      <feMerge><feMergeNode in="blur"/><feMergeNode in="SourceGraphic"/></feMerge>
    </filter>
  </defs>
  <circle cx="50" cy="50" r="48" fill="url(#phantomGlow)"/>
  <g filter="url(#ghostBlur)" opacity="0.3">
    <ellipse cx="50" cy="50" rx="28" ry="34" fill="none" stroke="#a5b4fc" stroke-width="2"/>
    <circle cx="42" cy="40" r="3" fill="#c7d2fe"/>
    <circle cx="58" cy="40" r="3" fill="#c7d2fe"/>
    <path d="M42 55 Q50 62 58 55" fill="none" stroke="#c7d2fe" stroke-width="1.5"/>
  </g>
  <g filter="url(#sharpBlur)" opacity="0.5">
    <ellipse cx="53" cy="47" rx="26" ry="32" fill="none" stroke="#818cf8" stroke-width="1.2"/>
    <circle cx="45" cy="38" r="2.5" fill="#a5b4fc"/>
    <circle cx="61" cy="38" r="2.5" fill="#a5b4fc"/>
    <path d="M45 52 Q53 58 61 52" fill="none" stroke="#a5b4fc" stroke-width="1"/>
  </g>
  <g opacity="0.7">
    <ellipse cx="50" cy="50" rx="24" ry="30" fill="none" stroke="#c7d2fe" stroke-width="1.5"/>
    <circle cx="42" cy="40" r="3" fill="#e0e7ff"/>
    <circle cx="58" cy="40" r="3" fill="#e0e7ff"/>
    <path d="M42 55 Q50 62 58 55" fill="none" stroke="#e0e7ff" stroke-width="1.2"/>
  </g>
  <g fill="none" stroke="#6366f1" stroke-width="0.4" opacity="0.25">
    <circle cx="50" cy="50" r="40" stroke-dasharray="3 6"/>
    <circle cx="50" cy="50" r="35" stroke-dasharray="1 8"/>
  </g>
  <g fill="#a5b4fc" opacity="0.3">
    <circle cx="25" cy="30" r="1"/>
    <circle cx="75" cy="30" r="1"/>
    <circle cx="20" cy="55" r="0.8"/>
    <circle cx="80" cy="55" r="0.8"/>
    <circle cx="50" cy="15" r="0.6"/>
    <circle cx="50" cy="85" r="0.6"/>
  </g>
</svg>