<svg xmlns="http://www.w3.org/2000/svg" viewBox="0 0 100 100" overflow="visible">
  <defs>
    <linearGradient id="bookGrad" x1="0" y1="0" x2="0" y2="1">
      <stop offset="0%" stop-color="#1e40af"/>
      <stop offset="100%" stop-color="#3b82f6"/>
    </linearGradient>
  </defs>
  <ellipse cx="6" cy="30" rx="2" ry="12" fill="#60a5fa" opacity="0.6"/>
  <ellipse cx="6" cy="50" rx="2" ry="12" fill="#93c5fd" opacity="0.4"/>
  <ellipse cx="6" cy="70" rx="2" ry="12" fill="#3b82f6" opacity="0.5"/>
  <ellipse cx="94" cy="30" rx="2" ry="12" fill="#60a5fa" opacity="0.6"/>
  <ellipse cx="94" cy="50" rx="2" ry="12" fill="#93c5fd" opacity="0.4"/>
  <ellipse cx="94" cy="70" rx="2" ry="12" fill="#3b82f6" opacity="0.5"/>
  <ellipse cx="12" cy="40" rx="1.5" ry="8" fill="#93c5fd" opacity="0.3"/>
  <ellipse cx="88" cy="40" rx="1.5" ry="8" fill="#93c5fd" opacity="0.3"/>
  <ellipse cx="12" cy="60" rx="1.5" ry="8" fill="#60a5fa" opacity="0.3"/>
  <ellipse cx="88" cy="60" rx="1.5" ry="8" fill="#60a5fa" opacity="0.3"/>
  <path d="M32 88 L50 78 L68 88 L65 94 L50 88 L35 94 Z" fill="url(#bookGrad)" stroke="#1e40af" stroke-width="1"/>
  <path d="M35 94 L35 80 L50 72 L65 80 L65 94" fill="none" stroke="#60a5fa" stroke-width="0.8" opacity="0.5"/>
  <line x1="42" y1="84" x2="42" y2="78" stroke="#93c5fd" stroke-width="0.8" opacity="0.6"/>
  <line x1="50" y1="82" x2="50" y2="74" stroke="#93c5fd" stroke-width="0.8" opacity="0.6"/>
  <line x1="58" y1="84" x2="58" y2="78" stroke="#93c5fd" stroke-width="0.8" opacity="0.6"/>
  <circle cx="20" cy="10" r="1.5" fill="#60a5fa" opacity="0.8"/>
  <circle cx="80" cy="12" r="1" fill="#93c5fd" opacity="0.7"/>
  <circle cx="30" cy="6" r="1" fill="#3b82f6" opacity="0.6"/>
  <circle cx="70" cy="8" r="1.5" fill="#60a5fa" opacity="0.5"/>
  <circle cx="10" cy="22" r="1" fill="#93c5fd" opacity="0.5"/>
  <circle cx="90" cy="20" r="1" fill="#3b82f6" opacity="0.5"/>
</svg>
