<svg xmlns="http://www.w3.org/2000/svg" viewBox="0 0 100 100" overflow="visible">
  <defs>
    <path id="droplet" d="M0-8C3-4 4 0 4 3a4 4 0 0 1-8 0C-4 0-3-4 0-8Z"/>
  </defs>
  <g opacity="0.3">
    <circle cx="50" cy="12" r="40" fill="none" stroke="#a5b4fc" stroke-width="1"/>
    <circle cx="50" cy="12" r="30" fill="none" stroke="#818cf8" stroke-width="0.5"/>
  </g>
  <g fill="#4338ca" opacity="0.6">
    <path d="M20 5 L23 15 L27 10 L30 15 L33 5 Z"/>
  </g>
  <g fill="#6366f1" opacity="0.7">
    <circle cx="23" cy="16" r="1.5"/>
    <circle cx="30" cy="16" r="1.5"/>
    <circle cx="26.5" cy="14" r="1"/>
  </g>
  <g opacity="0.8">
    <use href="#droplet" x="12" y="30" fill="#818cf8"/>
    <use href="#droplet" x="15" y="38" fill="#a5b4fc" opacity="0.6"/>
    <use href="#droplet" x="10" y="50" fill="#6366f1"/>
    <use href="#droplet" x="14" y="60" fill="#818cf8" opacity="0.7"/>
    <use href="#droplet" x="11" y="72" fill="#a5b4fc"/>
    <use href="#droplet" x="16" y="82" fill="#6366f1" opacity="0.5"/>
    <use href="#droplet" x="88" y="30" fill="#818cf8"/>
    <use href="#droplet" x="85" y="38" fill="#a5b4fc" opacity="0.6"/>
    <use href="#droplet" x="90" y="50" fill="#6366f1"/>
    <use href="#droplet" x="86" y="60" fill="#818cf8" opacity="0.7"/>
    <use href="#droplet" x="89" y="72" fill="#a5b4fc"/>
    <use href="#droplet" x="84" y="82" fill="#6366f1" opacity="0.5"/>
  </g>
  <g fill="#a5b4fc" opacity="0.4">
    <circle cx="8" cy="36" r="1"/>
    <circle cx="18" cy="44" r="0.8"/>
    <circle cx="7" cy="55" r="1.2"/>
    <circle cx="92" cy="36" r="1"/>
    <circle cx="82" cy="44" r="0.8"/>
    <circle cx="93" cy="55" r="1.2"/>
  </g>
  <g opacity="0.3">
    <circle cx="50" cy="88" r="40" fill="none" stroke="#a5b4fc" stroke-width="1"/>
    <circle cx="50" cy="88" r="30" fill="none" stroke="#818cf8" stroke-width="0.5"/>
  </g>
</svg>
