<svg xmlns="http://www.w3.org/2000/svg" viewBox="0 0 100 100" overflow="visible">
  <defs>
    <radialGradient id="dropGlow" cx="50%" cy="30%" r="60%">
      <stop offset="0%" stop-color="#818cf8" stop-opacity="0.8"/>
      <stop offset="100%" stop-color="#4338ca" stop-opacity="0"/>
    </radialGradient>
    <linearGradient id="dropGrad1" x1="0" y1="0" x2="0" y2="1">
      <stop offset="0%" stop-color="#a5b4fc"/>
      <stop offset="50%" stop-color="#6366f1"/>
      <stop offset="100%" stop-color="#4338ca"/>
    </linearGradient>
    <linearGradient id="dropGrad2" x1="0" y1="0" x2="0" y2="1">
      <stop offset="0%" stop-color="#818cf8"/>
      <stop offset="50%" stop-color="#4338ca"/>
      <stop offset="100%" stop-color="#3730a3"/>
    </linearGradient>
    <linearGradient id="dropGrad3" x1="0" y1="0" x2="0" y2="1">
      <stop offset="0%" stop-color="#c7d2fe"/>
      <stop offset="50%" stop-color="#a5b4fc"/>
      <stop offset="100%" stop-color="#6366f1"/>
    </linearGradient>
    <filter id="glow" x="-50%" y="-50%" width="200%" height="200%">
      <feGaussianBlur in="SourceGraphic" stdDeviation="1.5" result="blur"/>
      <feMerge>
        <feMergeNode in="blur"/>
        <feMergeNode in="SourceGraphic"/>
      </feMerge>
    </filter>
    <filter id="softGlow" x="-100%" y="-100%" width="300%" height="300%">
      <feGaussianBlur in="SourceGraphic" stdDeviation="2" result="blur"/>
      <feMerge>
        <feMergeNode in="blur"/>
        <feMergeNode in="blur"/>
        <feMergeNode in="SourceGraphic"/>
      </feMerge>
    </filter>
    <path id="dropletLg" d="M0-10C4-5 6 0 6 4a6 6 0 0 1-12 0C-6 0-4-5 0-10Z"/>
    <path id="dropletMd" d="M0-7C3-3.5 4 0 4 3a4 4 0 0 1-8 0C-4 0-3-3.5 0-7Z"/>
    <path id="dropletSm" d="M0-5C2-2.5 3 0 3 2a3 3 0 0 1-6 0C-3 0-2-2.5 0-5Z"/>
  </defs>
  <g filter="url(#softGlow)">
    <use href="#dropletLg" x="10" y="18" fill="url(#dropGrad1)" opacity="0.9"/>
    <use href="#dropletMd" x="22" y="12" fill="url(#dropGrad2)" opacity="0.8"/>
    <use href="#dropletSm" x="35" y="8" fill="url(#dropGrad3)" opacity="0.7"/>
    <use href="#dropletMd" x="65" y="10" fill="url(#dropGrad1)" opacity="0.85"/>
    <use href="#dropletLg" x="78" y="15" fill="url(#dropGrad2)" opacity="0.9"/>
    <use href="#dropletSm" x="90" y="20" fill="url(#dropGrad3)" opacity="0.75"/>
    <use href="#dropletMd" x="50" y="6" fill="url(#dropGrad1)" opacity="0.8"/>
  </g>
  <g filter="url(#glow)" opacity="0.85">
    <use href="#dropletMd" x="8" y="42" fill="url(#dropGrad2)"/>
    <use href="#dropletSm" x="14" y="55" fill="url(#dropGrad3)"/>
    <use href="#dropletLg" x="6" y="68" fill="url(#dropGrad1)"/>
    <use href="#dropletMd" x="12" y="82" fill="url(#dropGrad2)" opacity="0.7"/>
    <use href="#dropletSm" x="88" y="42" fill="url(#dropGrad1)"/>
    <use href="#dropletMd" x="84" y="55" fill="url(#dropGrad3)"/>
    <use href="#dropletLg" x="90" y="68" fill="url(#dropGrad2)"/>
    <use href="#dropletSm" x="86" y="82" fill="url(#dropGrad1)" opacity="0.7"/>
  </g>
  <g filter="url(#glow)" opacity="0.7">
    <use href="#dropletSm" x="18" y="28" fill="#818cf8"/>
    <use href="#dropletSm" x="82" y="28" fill="#a5b4fc"/>
    <use href="#dropletSm" x="5" y="35" fill="#6366f1" opacity="0.6"/>
    <use href="#dropletSm" x="95" y="35" fill="#6366f1" opacity="0.6"/>
  </g>
  <g fill="#a5b4fc" opacity="0.5" filter="url(#glow)">
    <circle cx="3" cy="25" r="1.5"/>
    <circle cx="20" cy="20" r="1"/>
    <circle cx="97" cy="25" r="1.5"/>
    <circle cx="80" cy="20" r="1"/>
  </g>
  <g fill="#818cf8" opacity="0.4">
    <circle cx="28" cy="16" r="0.8"/>
    <circle cx="72" cy="16" r="0.8"/>
    <circle cx="44" cy="11" r="0.6"/>
    <circle cx="56" cy="11" r="0.6"/>
  </g>
  <path d="M18 3 L21 8 L25 5 L27 9 L30 3 L33 8 L37 5 L39 9 L42 3" fill="none" stroke="#4338ca" stroke-width="1.5" stroke-linecap="round" opacity="0.6"/>
  <path d="M58 2 L61 7 L65 4 L67 8 L70 2 L73 7 L77 4 L79 8 L82 2" fill="none" stroke="#6366f1" stroke-width="1.2" stroke-linecap="round" opacity="0.5"/>
</svg>