<svg xmlns="http://www.w3.org/2000/svg" viewBox="0 0 100 100" overflow="visible">
  <defs>
    <linearGradient id="obs1" x1="0" y1="0" x2="1" y2="1">
      <stop offset="0%" stop-color="#0369a1"/>
      <stop offset="100%" stop-color="#7dd3fc"/>
    </linearGradient>
  </defs>
  <g fill="none" stroke-linecap="round">
    <circle cx="50" cy="50" r="48" stroke="#0369a1" stroke-width="1.5"/>
    <circle cx="50" cy="50" r="44" stroke="#0ea5e9" stroke-width="0.8"/>
    <circle cx="50" cy="50" r="40" stroke="#0369a1" stroke-width="1.2"/>
    <circle cx="50" cy="50" r="36" stroke="#38bdf8" stroke-width="0.6" stroke-dasharray="2 3"/>
    <circle cx="50" cy="50" r="32" stroke="#0ea5e9" stroke-width="1"/>
    <circle cx="50" cy="50" r="28" stroke="#7dd3fc" stroke-width="0.5" stroke-dasharray="1 4"/>
    <circle cx="50" cy="50" r="24" stroke="#0369a1" stroke-width="0.8"/>
  </g>
  <g stroke="#38bdf8" stroke-width="0.5">
    <line x1="50" y1="2" x2="50" y2="8"/><line x1="50" y1="92" x2="50" y2="98"/>
    <line x1="2" y1="50" x2="8" y2="50"/><line x1="92" y1="50" x2="98" y2="50"/>
    <line x1="16" y1="16" x2="20" y2="20"/><line x1="80" y1="80" x2="84" y2="84"/>
    <line x1="84" y1="16" x2="80" y2="20"/><line x1="16" y1="84" x2="20" y2="80"/>
  </g>
  <g stroke="#7dd3fc" stroke-width="0.4">
    <line x1="50" y1="4" x2="50" y2="7"/><line x1="50" y1="93" x2="50" y2="96"/>
    <line x1="4" y1="50" x2="7" y2="50"/><line x1="93" y1="50" x2="96" y2="50"/>
  </g>
  <g stroke="#0ea5e9" stroke-width="0.5" opacity="0.6">
    <line x1="50" y1="10" x2="50" y2="14" transform="rotate(15 50 50)"/>
    <line x1="50" y1="10" x2="50" y2="14" transform="rotate(30 50 50)"/>
    <line x1="50" y1="10" x2="50" y2="14" transform="rotate(45 50 50)"/>
    <line x1="50" y1="10" x2="50" y2="14" transform="rotate(60 50 50)"/>
    <line x1="50" y1="10" x2="50" y2="14" transform="rotate(75 50 50)"/>
    <line x1="50" y1="10" x2="50" y2="14" transform="rotate(105 50 50)"/>
    <line x1="50" y1="10" x2="50" y2="14" transform="rotate(120 50 50)"/>
    <line x1="50" y1="10" x2="50" y2="14" transform="rotate(135 50 50)"/>
    <line x1="50" y1="10" x2="50" y2="14" transform="rotate(150 50 50)"/>
    <line x1="50" y1="10" x2="50" y2="14" transform="rotate(165 50 50)"/>
    <line x1="50" y1="10" x2="50" y2="14" transform="rotate(195 50 50)"/>
    <line x1="50" y1="10" x2="50" y2="14" transform="rotate(210 50 50)"/>
    <line x1="50" y1="10" x2="50" y2="14" transform="rotate(225 50 50)"/>
    <line x1="50" y1="10" x2="50" y2="14" transform="rotate(240 50 50)"/>
    <line x1="50" y1="10" x2="50" y2="14" transform="rotate(255 50 50)"/>
    <line x1="50" y1="10" x2="50" y2="14" transform="rotate(285 50 50)"/>
    <line x1="50" y1="10" x2="50" y2="14" transform="rotate(300 50 50)"/>
    <line x1="50" y1="10" x2="50" y2="14" transform="rotate(315 50 50)"/>
    <line x1="50" y1="10" x2="50" y2="14" transform="rotate(330 50 50)"/>
    <line x1="50" y1="10" x2="50" y2="14" transform="rotate(345 50 50)"/>
  </g>
  <g stroke="#7dd3fc" stroke-width="0.3" opacity="0.5">
    <line x1="50" y1="6" x2="50" y2="9" transform="rotate(7.5 50 50)"/>
    <line x1="50" y1="6" x2="50" y2="9" transform="rotate(22.5 50 50)"/>
    <line x1="50" y1="6" x2="50" y2="9" transform="rotate(37.5 50 50)"/>
    <line x1="50" y1="6" x2="50" y2="9" transform="rotate(52.5 50 50)"/>
    <line x1="50" y1="6" x2="50" y2="9" transform="rotate(67.5 50 50)"/>
    <line x1="50" y1="6" x2="50" y2="9" transform="rotate(82.5 50 50)"/>
    <line x1="50" y1="6" x2="50" y2="9" transform="rotate(97.5 50 50)"/>
    <line x1="50" y1="6" x2="50" y2="9" transform="rotate(112.5 50 50)"/>
    <line x1="50" y1="6" x2="50" y2="9" transform="rotate(127.5 50 50)"/>
    <line x1="50" y1="6" x2="50" y2="9" transform="rotate(142.5 50 50)"/>
    <line x1="50" y1="6" x2="50" y2="9" transform="rotate(157.5 50 50)"/>
    <line x1="50" y1="6" x2="50" y2="9" transform="rotate(172.5 50 50)"/>
    <line x1="50" y1="6" x2="50" y2="9" transform="rotate(187.5 50 50)"/>
    <line x1="50" y1="6" x2="50" y2="9" transform="rotate(202.5 50 50)"/>
    <line x1="50" y1="6" x2="50" y2="9" transform="rotate(217.5 50 50)"/>
    <line x1="50" y1="6" x2="50" y2="9" transform="rotate(232.5 50 50)"/>
    <line x1="50" y1="6" x2="50" y2="9" transform="rotate(247.5 50 50)"/>
    <line x1="50" y1="6" x2="50" y2="9" transform="rotate(262.5 50 50)"/>
    <line x1="50" y1="6" x2="50" y2="9" transform="rotate(277.5 50 50)"/>
    <line x1="50" y1="6" x2="50" y2="9" transform="rotate(292.5 50 50)"/>
    <line x1="50" y1="6" x2="50" y2="9" transform="rotate(307.5 50 50)"/>
    <line x1="50" y1="6" x2="50" y2="9" transform="rotate(322.5 50 50)"/>
    <line x1="50" y1="6" x2="50" y2="9" transform="rotate(337.5 50 50)"/>
    <line x1="50" y1="6" x2="50" y2="9" transform="rotate(352.5 50 50)"/>
  </g>
  <g stroke="#0369a1" stroke-width="0.4" opacity="0.4">
    <circle cx="50" cy="50" r="20" stroke-dasharray="3 6"/>
    <circle cx="50" cy="50" r="16" stroke-dasharray="1 5"/>
  </g>
  <circle cx="50" cy="50" r="48" stroke="url(#obs1)" stroke-width="0.3" opacity="0.5"/>
</svg>
