<svg xmlns="http://www.w3.org/2000/svg" viewBox="0 0 100 100" overflow="visible">
  <defs>
    <radialGradient id="obsGlow" cx="50%" cy="50%" r="50%">
      <stop offset="30%" stop-color="#38bdf8" stop-opacity="0"/>
      <stop offset="60%" stop-color="#0ea5e9" stop-opacity="0.08"/>
      <stop offset="85%" stop-color="#0369a1" stop-opacity="0.15"/>
      <stop offset="100%" stop-color="#0369a1" stop-opacity="0.05"/>
    </radialGradient>
    <linearGradient id="obsRing" x1="0" y1="0" x2="1" y2="1">
      <stop offset="0%" stop-color="#0369a1"/>
      <stop offset="50%" stop-color="#0ea5e9"/>
      <stop offset="100%" stop-color="#38bdf8"/>
    </linearGradient>
    <filter id="astroGlow">
      <feGaussianBlur stdDeviation="1.2" result="blur"/>
      <feComposite in="SourceGraphic" in2="blur" operator="over"/>
    </filter>
    <filter id="starGlow2">
      <feGaussianBlur stdDeviation="0.8" result="blur"/>
      <feMerge>
        <feMergeNode in="blur"/>
        <feMergeNode in="SourceGraphic"/>
      </feMerge>
    </filter>
  </defs>
  <circle cx="50" cy="50" r="48" fill="url(#obsGlow)"/>
  <g fill="none" stroke-linecap="round" filter="url(#astroGlow)">
    <circle cx="50" cy="50" r="47" stroke="#0369a1" stroke-width="1.8" opacity="0.9"/>
    <circle cx="50" cy="50" r="45" stroke="#0ea5e9" stroke-width="0.6" stroke-dasharray="4 2" opacity="0.7"/>
    <circle cx="50" cy="50" r="42" stroke="#38bdf8" stroke-width="1.2" opacity="0.85"/>
    <circle cx="50" cy="50" r="39" stroke="#7dd3fc" stroke-width="0.5" stroke-dasharray="1 3" opacity="0.6"/>
    <circle cx="50" cy="50" r="36" stroke="#0369a1" stroke-width="1.4" opacity="0.8"/>
    <circle cx="50" cy="50" r="33" stroke="#0ea5e9" stroke-width="0.4" stroke-dasharray="2 4" opacity="0.5"/>
    <circle cx="50" cy="50" r="30" stroke="#38bdf8" stroke-width="1" opacity="0.75"/>
    <circle cx="50" cy="50" r="27" stroke="#7dd3fc" stroke-width="0.3" stroke-dasharray="1 5" opacity="0.4"/>
    <circle cx="50" cy="50" r="24" stroke="#0369a1" stroke-width="0.8" opacity="0.65"/>
  </g>
  <g stroke="#0ea5e9" stroke-width="0.7" filter="url(#starGlow2)">
    <line x1="50" y1="1" x2="50" y2="9"/>
    <line x1="50" y1="91" x2="50" y2="99"/>
    <line x1="1" y1="50" x2="9" y2="50"/>
    <line x1="91" y1="50" x2="99" y2="50"/>
    <line x1="15" y1="15" x2="21" y2="21"/>
    <line x1="79" y1="79" x2="85" y2="85"/>
    <line x1="85" y1="15" x2="79" y2="21"/>
    <line x1="15" y1="85" x2="21" y2="79"/>
  </g>
  <g stroke="#38bdf8" stroke-width="0.4" opacity="0.65">
    <line x1="50" y1="3" x2="50" y2="7" transform="rotate(15 50 50)"/>
    <line x1="50" y1="3" x2="50" y2="7" transform="rotate(30 50 50)"/>
    <line x1="50" y1="3" x2="50" y2="7" transform="rotate(45 50 50)"/>
    <line x1="50" y1="3" x2="50" y2="7" transform="rotate(60 50 50)"/>
    <line x1="50" y1="3" x2="50" y2="7" transform="rotate(75 50 50)"/>
    <line x1="50" y1="3" x2="50" y2="7" transform="rotate(105 50 50)"/>
    <line x1="50" y1="3" x2="50" y2="7" transform="rotate(120 50 50)"/>
    <line x1="50" y1="3" x2="50" y2="7" transform="rotate(135 50 50)"/>
    <line x1="50" y1="3" x2="50" y2="7" transform="rotate(150 50 50)"/>
    <line x1="50" y1="3" x2="50" y2="7" transform="rotate(165 50 50)"/>
    <line x1="50" y1="3" x2="50" y2="7" transform="rotate(195 50 50)"/>
    <line x1="50" y1="3" x2="50" y2="7" transform="rotate(210 50 50)"/>
    <line x1="50" y1="3" x2="50" y2="7" transform="rotate(225 50 50)"/>
    <line x1="50" y1="3" x2="50" y2="7" transform="rotate(240 50 50)"/>
    <line x1="50" y1="3" x2="50" y2="7" transform="rotate(255 50 50)"/>
    <line x1="50" y1="3" x2="50" y2="7" transform="rotate(285 50 50)"/>
    <line x1="50" y1="3" x2="50" y2="7" transform="rotate(300 50 50)"/>
    <line x1="50" y1="3" x2="50" y2="7" transform="rotate(315 50 50)"/>
    <line x1="50" y1="3" x2="50" y2="7" transform="rotate(330 50 50)"/>
    <line x1="50" y1="3" x2="50" y2="7" transform="rotate(345 50 50)"/>
  </g>
  <g stroke="#7dd3fc" stroke-width="0.3" opacity="0.5">
    <line x1="50" y1="2" x2="50" y2="5" transform="rotate(7.5 50 50)"/>
    <line x1="50" y1="2" x2="50" y2="5" transform="rotate(22.5 50 50)"/>
    <line x1="50" y1="2" x2="50" y2="5" transform="rotate(37.5 50 50)"/>
    <line x1="50" y1="2" x2="50" y2="5" transform="rotate(52.5 50 50)"/>
    <line x1="50" y1="2" x2="50" y2="5" transform="rotate(67.5 50 50)"/>
    <line x1="50" y1="2" x2="50" y2="5" transform="rotate(82.5 50 50)"/>
    <line x1="50" y1="2" x2="50" y2="5" transform="rotate(97.5 50 50)"/>
    <line x1="50" y1="2" x2="50" y2="5" transform="rotate(112.5 50 50)"/>
    <line x1="50" y1="2" x2="50" y2="5" transform="rotate(127.5 50 50)"/>
    <line x1="50" y1="2" x2="50" y2="5" transform="rotate(142.5 50 50)"/>
    <line x1="50" y1="2" x2="50" y2="5" transform="rotate(157.5 50 50)"/>
    <line x1="50" y1="2" x2="50" y2="5" transform="rotate(172.5 50 50)"/>
    <line x1="50" y1="2" x2="50" y2="5" transform="rotate(187.5 50 50)"/>
    <line x1="50" y1="2" x2="50" y2="5" transform="rotate(202.5 50 50)"/>
    <line x1="50" y1="2" x2="50" y2="5" transform="rotate(217.5 50 50)"/>
    <line x1="50" y1="2" x2="50" y2="5" transform="rotate(232.5 50 50)"/>
    <line x1="50" y1="2" x2="50" y2="5" transform="rotate(247.5 50 50)"/>
    <line x1="50" y1="2" x2="50" y2="5" transform="rotate(262.5 50 50)"/>
    <line x1="50" y1="2" x2="50" y2="5" transform="rotate(277.5 50 50)"/>
    <line x1="50" y1="2" x2="50" y2="5" transform="rotate(292.5 50 50)"/>
    <line x1="50" y1="2" x2="50" y2="5" transform="rotate(307.5 50 50)"/>
    <line x1="50" y1="2" x2="50" y2="5" transform="rotate(322.5 50 50)"/>
    <line x1="50" y1="2" x2="50" y2="5" transform="rotate(337.5 50 50)"/>
    <line x1="50" y1="2" x2="50" y2="5" transform="rotate(352.5 50 50)"/>
  </g>
  <g fill="none" stroke="#0369a1" stroke-width="0.5" opacity="0.45">
    <circle cx="50" cy="50" r="21" stroke-dasharray="3 5"/>
    <circle cx="50" cy="50" r="18" stroke-dasharray="1 4"/>
    <circle cx="50" cy="50" r="15" stroke-dasharray="2 6"/>
  </g>
  <g fill="none" stroke="#0ea5e9" stroke-width="0.4" opacity="0.3">
    <line x1="50" y1="29" x2="50" y2="35" transform="rotate(0 50 50)"/>
    <line x1="50" y1="29" x2="50" y2="35" transform="rotate(45 50 50)"/>
    <line x1="50" y1="29" x2="50" y2="35" transform="rotate(90 50 50)"/>
    <line x1="50" y1="29" x2="50" y2="35" transform="rotate(135 50 50)"/>
    <line x1="50" y1="29" x2="50" y2="35" transform="rotate(180 50 50)"/>
    <line x1="50" y1="29" x2="50" y2="35" transform="rotate(225 50 50)"/>
    <line x1="50" y1="29" x2="50" y2="35" transform="rotate(270 50 50)"/>
    <line x1="50" y1="29" x2="50" y2="35" transform="rotate(315 50 50)"/>
  </g>
  <circle cx="50" cy="50" r="47" stroke="url(#obsRing)" stroke-width="0.4" opacity="0.5" fill="none"/>
  <g fill="#7dd3fc" filter="url(#starGlow2)" opacity="0.5">
    <circle cx="50" cy="5" r="0.8"/>
    <circle cx="50" cy="95" r="0.8"/>
    <circle cx="5" cy="50" r="0.8"/>
    <circle cx="95" cy="50" r="0.8"/>
    <circle cx="18" cy="18" r="0.6"/>
    <circle cx="82" cy="82" r="0.6"/>
    <circle cx="82" cy="18" r="0.6"/>
    <circle cx="18" cy="82" r="0.6"/>
  </g>
</svg>