<svg xmlns="http://www.w3.org/2000/svg" viewBox="0 0 100 100" overflow="visible">
  <circle cx="8" cy="12" r="2.5" fill="#c4b5fd" opacity="0.9"/>
  <circle cx="20" cy="6" r="1.5" fill="#a78bfa" opacity="0.7"/>
  <circle cx="35" cy="10" r="2" fill="#8b5cf6" opacity="0.8"/>
  <circle cx="65" cy="8" r="2" fill="#c4b5fd" opacity="0.6"/>
  <circle cx="80" cy="14" r="1.5" fill="#a78bfa" opacity="0.9"/>
  <circle cx="92" cy="8" r="2.5" fill="#8b5cf6" opacity="0.7"/>
  <circle cx="5" cy="50" r="1.5" fill="#c4b5fd" opacity="0.5"/>
  <circle cx="95" cy="45" r="1.5" fill="#a78bfa" opacity="0.6"/>
  <circle cx="8" cy="85" r="2" fill="#8b5cf6" opacity="0.8"/>
  <circle cx="22" cy="92" r="1.5" fill="#c4b5fd" opacity="0.7"/>
  <circle cx="78" cy="90" r="2" fill="#a78bfa" opacity="0.9"/>
  <circle cx="92" cy="88" r="1.5" fill="#8b5cf6" opacity="0.6"/>
  <circle cx="50" cy="6" r="1" fill="#c4b5fd" opacity="0.5"/>
  <circle cx="15" cy="30" r="1" fill="#a78bfa" opacity="0.4"/>
  <circle cx="85" cy="30" r="1" fill="#c4b5fd" opacity="0.4"/>
  <circle cx="15" cy="65" r="1" fill="#8b5cf6" opacity="0.4"/>
  <circle cx="85" cy="65" r="1" fill="#a78bfa" opacity="0.4"/>
  <circle cx="50" cy="94" r="1" fill="#c4b5fd" opacity="0.5"/>
  <circle cx="30" cy="4" r="1.5" fill="#6d28d9" opacity="0.5"/>
  <circle cx="70" cy="4" r="1.5" fill="#6d28d9" opacity="0.5"/>
  <circle cx="6" cy="30" r="2" fill="#6d28d9" opacity="0.3"/>
  <circle cx="94" cy="70" r="2" fill="#6d28d9" opacity="0.3"/>
  <circle cx="94" cy="25" r="2.5" fill="#c4b5fd" opacity="0.3"/>
  <circle cx="6" cy="70" r="2.5" fill="#c4b5fd" opacity="0.3"/>
</svg>
