<svg xmlns="http://www.w3.org/2000/svg" viewBox="0 0 100 100" overflow="visible">
  <defs>
    <linearGradient id="crown" x1="0" y1="0" x2="0" y2="1">
      <stop offset="0%" stop-color="#fbbf24"/>
      <stop offset="50%" stop-color="#a78bfa"/>
      <stop offset="100%" stop-color="#4c1d95"/>
    </linearGradient>
    <filter id="starGlow">
      <feGaussianBlur stdDeviation="0.8" result="blur"/>
      <feMerge>
        <feMergeNode in="blur"/>
        <feMergeNode in="SourceGraphic"/>
      </feMerge>
    </filter>
  </defs>
  <g fill="none" stroke="#4c1d95" stroke-width="1.5" stroke-linejoin="round">
    <polygon points="25,28 32,18 40,28 50,16 60,28 68,18 75,28 70,35 65,30 60,38 55,30 50,40 45,30 40,38 35,30 30,35" stroke="url(#crown)"/>
  </g>
  <g fill="none" stroke="#7c3aed" stroke-width="0.8" stroke-linejoin="round" opacity="0.6">
    <polygon points="30,28 35,22 40,28 50,20 60,28 65,22 70,28"/>
  </g>
  <g fill="#fbbf24" filter="url(#starGlow)">
    <polygon points="50,8 51.5,12 56,12 52.5,14.5 54,19 50,16 46,19 47.5,14.5 44,12 48.5,12" opacity="0.9"/>
    <polygon points="30,22 30.8,24.5 33.5,24.5 31.4,26.2 32.2,28.8 30,27 27.8,28.8 28.6,26.2 26.5,24.5 29.2,24.5" opacity="0.7"/>
    <polygon points="70,22 70.8,24.5 73.5,24.5 71.4,26.2 72.2,28.8 70,27 67.8,28.8 68.6,26.2 66.5,24.5 69.2,24.5" opacity="0.7"/>
  </g>
  <g fill="#c4b5fd" opacity="0.6" filter="url(#starGlow)">
    <circle cx="18" cy="30" r="1"/>
    <circle cx="82" cy="30" r="1"/>
    <circle cx="42" cy="14" r="0.8"/>
    <circle cx="58" cy="14" r="0.8"/>
    <circle cx="50" cy="6" r="0.6"/>
    <circle cx="22" cy="22" r="0.7"/>
    <circle cx="78" cy="22" r="0.7"/>
  </g>
  <g fill="#a78bfa" opacity="0.4">
    <circle cx="14" cy="36" r="0.5"/>
    <circle cx="86" cy="36" r="0.5"/>
    <circle cx="36" cy="18" r="0.5"/>
    <circle cx="64" cy="18" r="0.5"/>
    <circle cx="50" cy="4" r="0.5"/>
  </g>
  <g fill="none" stroke="#a78bfa" stroke-width="0.3" opacity="0.3">
    <circle cx="50" cy="28" r="18" stroke-dasharray="2 4"/>
    <circle cx="50" cy="28" r="22" stroke-dasharray="1 6"/>
  </g>
  <g fill="none" stroke="#fbbf24" stroke-width="0.5" opacity="0.5">
    <circle cx="50" cy="28" r="3"/>
    <circle cx="50" cy="28" r="5" stroke-dasharray="1 2"/>
  </g>
</svg>
