<svg xmlns="http://www.w3.org/2000/svg" viewBox="0 0 100 100" overflow="visible">
  <defs>
    <linearGradient id="crownGrad" x1="0" y1="0" x2="0" y2="1">
      <stop offset="0%" stop-color="#fbbf24"/>
      <stop offset="30%" stop-color="#a78bfa"/>
      <stop offset="70%" stop-color="#7c3aed"/>
      <stop offset="100%" stop-color="#4c1d95"/>
    </linearGradient>
    <radialGradient id="cosmicGlow" cx="50%" cy="30%" r="60%">
      <stop offset="0%" stop-color="#c4b5fd" stop-opacity="0.15"/>
      <stop offset="40%" stop-color="#7c3aed" stop-opacity="0.08"/>
      <stop offset="100%" stop-color="#4c1d95" stop-opacity="0"/>
    </radialGradient>
    <filter id="starGlow">
      <feGaussianBlur stdDeviation="1" result="blur"/>
      <feMerge>
        <feMergeNode in="blur"/>
        <feMergeNode in="SourceGraphic"/>
      </feMerge>
    </filter>
    <filter id="bigGlow">
      <feGaussianBlur stdDeviation="2" result="blur"/>
      <feMerge>
        <feMergeNode in="blur"/>
        <feMergeNode in="SourceGraphic"/>
      </feMerge>
    </filter>
  </defs>
  <circle cx="50" cy="40" r="38" fill="url(#cosmicGlow)"/>
  <g fill="none" stroke-linejoin="round" filter="url(#bigGlow)">
    <polygon points="25,26 30,14 38,26 46,12 54,26 62,12 70,26 75,14 75,26 70,32 65,26 60,36 55,26 50,40 45,26 40,36 35,26 30,32" stroke="url(#crownGrad)" stroke-width="1.8"/>
  </g>
  <g fill="none" stroke="#7c3aed" stroke-width="1" stroke-linejoin="round" opacity="0.65">
    <polygon points="30,26 34,18 40,26 50,16 60,26 66,18 70,26"/>
  </g>
  <g fill="none" stroke="#a78bfa" stroke-width="0.5" stroke-linejoin="round" opacity="0.45">
    <polygon points="34,26 37,21 42,26 50,20 58,26 63,21 66,26"/>
  </g>
  <g fill="#fbbf24" filter="url(#starGlow)">
    <polygon points="50,4 51.8,9 57,9 53,12 54.5,17 50,14 45.5,17 47,12 43,9 48.2,9" opacity="0.95"/>
    <polygon points="30,20 31,23 34,23 31.8,25 32.6,28 30,26 27.4,28 28.2,25 26,23 29,23" opacity="0.8"/>
    <polygon points="70,20 71,23 74,23 71.8,25 72.6,28 70,26 67.4,28 68.2,25 66,23 69,23" opacity="0.8"/>
    <polygon points="18,30 18.8,32 21,32 19.4,33.4 20,35.5 18,34 16,35.5 16.6,33.4 15,32 17.2,32" opacity="0.65"/>
    <polygon points="82,30 82.8,32 85,32 83.4,33.4 84,35.5 82,34 80,35.5 80.6,33.4 79,32 81.2,32" opacity="0.65"/>
  </g>
  <g fill="#c4b5fd" opacity="0.7" filter="url(#starGlow)">
    <circle cx="42" cy="12" r="0.9"/>
    <circle cx="58" cy="12" r="0.9"/>
    <circle cx="50" cy="3" r="0.7"/>
    <circle cx="22" cy="24" r="0.7"/>
    <circle cx="78" cy="24" r="0.7"/>
    <circle cx="14" cy="36" r="0.6"/>
    <circle cx="86" cy="36" r="0.6"/>
    <circle cx="36" cy="16" r="0.5"/>
    <circle cx="64" cy="16" r="0.5"/>
  </g>
  <g fill="#a78bfa" opacity="0.45">
    <circle cx="10" cy="40" r="0.5"/>
    <circle cx="90" cy="40" r="0.5"/>
    <circle cx="26" cy="18" r="0.4"/>
    <circle cx="74" cy="18" r="0.4"/>
    <circle cx="50" cy="1" r="0.4"/>
    <circle cx="34" cy="10" r="0.3"/>
    <circle cx="66" cy="10" r="0.3"/>
  </g>
  <g fill="none" stroke="#a78bfa" stroke-width="0.4" opacity="0.35">
    <circle cx="50" cy="26" r="22" stroke-dasharray="3 5"/>
    <circle cx="50" cy="26" r="26" stroke-dasharray="1 7"/>
    <circle cx="50" cy="26" r="30" stroke-dasharray="2 8"/>
  </g>
  <g fill="none" stroke="#7c3aed" stroke-width="0.3" opacity="0.25">
    <circle cx="50" cy="26" r="16" stroke-dasharray="1 4"/>
    <circle cx="50" cy="26" r="12" stroke-dasharray="2 6"/>
  </g>
  <g fill="none" stroke="#fbbf24" stroke-width="0.6" opacity="0.5" filter="url(#starGlow)">
    <circle cx="50" cy="26" r="4"/>
    <circle cx="50" cy="26" r="6" stroke-dasharray="1 2"/>
    <circle cx="50" cy="26" r="8"/>
  </g>
  <g fill="none" stroke="#c4b5fd" stroke-width="0.3" opacity="0.3">
    <line x1="50" y1="4" x2="50" y2="12"/>
    <line x1="30" y1="14" x2="30" y2="20"/>
    <line x1="70" y1="14" x2="70" y2="20"/>
    <line x1="18" y1="30" x2="25" y2="26"/>
    <line x1="82" y1="30" x2="75" y2="26"/>
  </g>
</svg>