<svg xmlns="http://www.w3.org/2000/svg" viewBox="0 0 100 100" overflow="visible">
  <defs>
    <path id="petal" d="M0,0 C-8,-12 -6,-28 0,-35 C6,-28 8,-12 0,0Z"/>
  </defs>
  <g opacity="0.3" fill="none" stroke="#fbbf24" stroke-width="0.5">
    <circle cx="50" cy="10" r="45"/>
    <circle cx="50" cy="10" r="35"/>
  </g>
  <g transform="translate(50,10)">
    <use href="#petal" transform="rotate(0)" fill="#92400e" opacity="0.5"/>
    <use href="#petal" transform="rotate(30)" fill="#d97706" opacity="0.6"/>
    <use href="#petal" transform="rotate(60)" fill="#f59e0b" opacity="0.7"/>
    <use href="#petal" transform="rotate(90)" fill="#fbbf24" opacity="0.8"/>
    <use href="#petal" transform="rotate(120)" fill="#92400e" opacity="0.5"/>
    <use href="#petal" transform="rotate(150)" fill="#d97706" opacity="0.6"/>
    <use href="#petal" transform="rotate(180)" fill="#f59e0b" opacity="0.7"/>
    <use href="#petal" transform="rotate(210)" fill="#fbbf24" opacity="0.8"/>
    <use href="#petal" transform="rotate(240)" fill="#92400e" opacity="0.5"/>
    <use href="#petal" transform="rotate(270)" fill="#d97706" opacity="0.6"/>
    <use href="#petal" transform="rotate(300)" fill="#f59e0b" opacity="0.7"/>
    <use href="#petal" transform="rotate(330)" fill="#fbbf24" opacity="0.8"/>
  </g>
  <circle cx="50" cy="10" r="8" fill="#92400e" opacity="0.8"/>
  <circle cx="50" cy="10" r="4" fill="#d97706" opacity="0.9"/>
  <g fill="#fbbf24" opacity="0.6">
    <circle cx="15" cy="30" r="2"/><circle cx="20" cy="45" r="1.5"/>
    <circle cx="10" cy="55" r="2.5"/><circle cx="18" cy="70" r="1.5"/>
    <circle cx="12" cy="85" r="2"/><circle cx="25" cy="90" r="1.5"/>
    <circle cx="50" cy="95" r="2"/><circle cx="75" cy="90" r="1.5"/>
    <circle cx="88" cy="85" r="2"/><circle cx="82" cy="70" r="1.5"/>
    <circle cx="90" cy="55" r="2.5"/><circle cx="80" cy="45" r="1.5"/>
    <circle cx="85" cy="30" r="2"/>
  </g>
  <g fill="#f59e0b" opacity="0.4">
    <path d="M0 20 Q5 18 10 20 Q5 22 0 20Z"/>
    <path d="M90 20 Q95 18 100 20 Q95 22 90 20Z"/>
    <path d="M5 25 Q10 23 15 25 Q10 27 5 25Z"/>
    <path d="M85 25 Q90 23 95 25 Q90 27 85 25Z"/>
  </g>
</svg>
